<mxfile host="Electron" modified="2023-12-21T09:20:42.920Z" agent="5.0 (Windows NT 10.0; Win64; x64) AppleWebKit/537.36 (KHTML, like Gecko) draw.io/19.0.2 Chrome/102.0.5005.63 Electron/19.0.3 Safari/537.36" etag="SyHSOaVOwBW07WkrrgPF" compressed="false" version="19.0.2" type="device">
  <diagram id="5mQjVeAMLh9t2EBukIg2" name="Page-1">
    <mxGraphModel dx="4010" dy="2171" grid="1" gridSize="10" guides="1" tooltips="1" connect="1" arrows="1" fold="1" page="1" pageScale="1" pageWidth="850" pageHeight="1100" math="0" shadow="0">
      <root>
        <object tooltip="" id="0">
          <ag_global_attributes>
            <ag_global_attribute name="Resources" value="" iconName="hammer" min="0" max="5" />
            <ag_global_attribute name="Knowledge" value="" iconName="lightbulb" min="0" max="5" />
            <ag_global_attribute name="Location" value="" iconName="map_pin_ellipse" min="0" max="1" />
            <ag_global_attribute name="Impact" value="" iconName="flame" min="0" max="5" />
          </ag_global_attributes>
          <ag_attributes />
          <ag_computed_attributes />
          <ag_aggregation_functions>
            <ag_aggregation_function name="default" id="6b1d22791hih8" default="activity_w;link" fn="function (collection) { &#xa;    var result = null; &#xa;    if (collection.childAttributes.length == 1) { &#xa;        result = collection.childAttributes[0].attributes;&#xa;        result._marking = collection.childAttributes[0].id;&#xa;    } else { &#xa;        var candidates = []; &#xa;        var worstValue = 0; &#xa;        collection.childAttributes.forEach(function(child) { &#xa;            var value = parseInt(child.computedAttribute); &#xa;            if (value &gt; worstValue) { &#xa;                worstValue = value; &#xa;                candidates = []; &#xa;                candidates.push(child); &#xa;            } else if (value == worstValue) { &#xa;                candidates.push(child); &#xa;            } &#xa;        }); &#xa;        var tiebreaker = function(candidates, name, max) { &#xa;            var min_value = max; &#xa;            candidates.forEach(function(node) { &#xa;                min_value = Math.min(min_value, node.attributes[name]); &#xa;            }); &#xa;            result = []; &#xa;            candidates.forEach(function(node) { &#xa;                if (node.attributes[name] == min_value) { &#xa;                    result.push(node); &#xa;                } &#xa;            }); &#xa;            return result; &#xa;        }; &#xa;        if (candidates.length &gt; 1) { &#xa;            candidates = tiebreaker(candidates, &quot;Resources&quot;, collection.globalAttributes[&quot;Resources&quot;].max); &#xa;            if (candidates.length &gt; 1) { &#xa;                candidates = tiebreaker(candidates, &quot;Knowledge&quot;, collection.globalAttributes[&quot;Knowledge&quot;].max); &#xa;            } &#xa;        } &#xa;        result = candidates[0].attributes;&#xa;        result._marking = candidates[0].id;&#xa;    } &#xa;    return result; &#xa;}" />
            <ag_aggregation_function name="AND" id="gf0d4f199018" default="and" fn="function (collection) { &#xa;    var result = {}; &#xa;    var ids = [];&#xa;    collection.childAttributes.forEach(function(child) { &#xa;    for (var attribute in child.attributes) { &#xa;            if (attribute in result) { &#xa;                result[attribute] += parseInt(child.attributes[attribute]); &#xa;            } else { &#xa;                result[attribute] = parseInt(child.attributes[attribute]); &#xa;            } &#xa;        }&#xa;        ids.push(child.id);&#xa;    }); &#xa;    for (var attribute in result) { &#xa;        if (attribute in collection.globalAttributes) { &#xa;            result[attribute] = Math.min(collection.globalAttributes[attribute].max, result[attribute]); &#xa;        } &#xa;    }&#xa;    result._marking = ids.join(&quot;;&quot;);&#xa;    return result; &#xa;}" />
            <ag_aggregation_function name="Security Control" id="73f575i0ghij5" default="activity_g;activity_y" fn="function (collection) { &#xa;    var result = {}; &#xa;    for (var attribute in collection.localAttributes) { &#xa;        result[attribute] = parseInt(collection.localAttributes[attribute]); &#xa;    } &#xa;    collection.childAttributes.forEach(function(child) { &#xa;        for (var attribute in child.attributes) { &#xa;            if (attribute in collection.globalAttributes) { &#xa;                if (attribute in result) { &#xa;                    result[attribute] += parseInt(child.attributes[attribute]); &#xa;                } &#xa;            } &#xa;        } &#xa;    }); &#xa;    for (var attribute in result) { &#xa;        if (attribute in collection.globalAttributes) { &#xa;            result[attribute] = Math.min(collection.globalAttributes[attribute].max, result[attribute]); &#xa;        } &#xa;    } &#xa;    return result; &#xa;}" />
            <ag_aggregation_function name="Risk" id="egf49jfgj408" default="consequence" fn="function (collection) {  &#xa;    var maxRisk = &quot;L&quot;; &#xa;    var matrix = [ &#xa;        [&quot;L&quot;, &quot;L&quot;, &quot;L&quot;, &quot;L&quot;, &quot;L&quot;], &#xa;        [&quot;L&quot;, &quot;L&quot;, &quot;M&quot;, &quot;M&quot;, &quot;M&quot;], &#xa;        [&quot;L&quot;, &quot;M&quot;, &quot;M&quot;, &quot;S&quot;, &quot;S&quot;], &#xa;        [&quot;L&quot;, &quot;M&quot;, &quot;S&quot;, &quot;V&quot;, &quot;V&quot;], &#xa;        [&quot;L&quot;, &quot;M&quot;, &quot;S&quot;, &quot;V&quot;, &quot;V&quot;], &#xa;    ];&#xa;    var updatedImpacts = [];&#xa;    var ids = [];&#xa; &#xa;    var compareRisk = function(risk1, risk2) { &#xa;        /*&#xa;        * Returns:&#xa;        *  - Null: if one of the parameters is not a character representing a risk&#xa;        *  - Negativ integer: if risk1 &lt; risk2&#xa;        *  - Zero: if risks are equal&#xa;        *  - Positive integer: if risk1 &gt; risk2&#xa;        */&#xa;        var values = [&quot;L&quot;, &quot;M&quot;, &quot;S&quot;, &quot;V&quot;]; &#xa;        var index_risk1 = values.indexOf(risk1); &#xa;        var index_risk2 = values.indexOf(risk2); &#xa; &#xa;        if (index_risk1 == -1 || index_risk2 == -1) { &#xa;            return null; &#xa;        } &#xa;        return index_risk1 - index_risk2; &#xa; &#xa;    } &#xa;     &#xa;    collection.childAttributes.forEach(function(child) {  &#xa;        var impact = 1;  &#xa;        if (child.edgeWeight !== null) {  &#xa;            impact = parseInt(child.edgeWeight);  &#xa;        }&#xa;        var _impact = parseInt(child.attributes._impact) || 0;&#xa;        impact = Math.max(impact - _impact, 1);&#xa;        updatedImpacts.push(child.id + &#39;:&#39; + impact);&#xa;        var af = parseInt(child.computedAttribute) || parseInt(child.attributes._af);&#xa;        risk = matrix[af - 1][impact - 1];&#xa;        result = compareRisk(risk, maxRisk);&#xa;        if (result &gt; 0) { &#xa;            maxRisk = risk;&#xa;            ids = [child.id];&#xa;        } else if (result == 0){&#xa;            ids.push(child.id);&#xa;        }&#xa;    });  &#xa;  &#xa;    var result = {&#39;_risk&#39;: maxRisk, &quot;_marking&quot;: ids.join(&quot;;&quot;)};&#xa;    if (updatedImpacts.length &gt; 0) {&#xa;        result._weight = updatedImpacts.join(&#39;;&#39;);&#xa;    }&#xa;    return result;&#xa;}" />
            <ag_aggregation_function name="Impact" id="397423adceb0f" default="" fn="function(collection) {&#xa;    var impact = 0;&#xa;    var result = {}&#xa;    &#xa;    collection.childAttributes.forEach(function(child) {&#xa;        if (&quot;Impact&quot; in child.attributes) {&#xa;            impact += parseInt(child.attributes[&quot;Impact&quot;]);&#xa;        } else if (&quot;Resources&quot; in child.attributes &amp;&amp; &quot;Knowledge&quot; in child.attributes &amp;&amp; &quot;Location&quot; in child.attributes) {&#xa;            result._af = child.computedAttribute&#xa;            result._marking = child.id;&#xa;        }&#xa;    });&#xa;    result._impact = Math.min(impact, collection.globalAttributes[&quot;Impact&quot;].max);&#xa;    &#xa;    return result;&#xa;}" />
          </ag_aggregation_functions>
          <ag_computed_attributes_functions>
            <ag_computed_attributes_function name="default" id="dbg60ff69g9a" default="activity_w;activity_g;activity_y" fn="function (collection) { &#xa;    var colorMatrix = {&#xa;        5: {&quot;fillColor&quot;: &quot;#cc0000&quot;, &quot;fontColor&quot;: &quot;#ffffff&quot;},&#xa;        4: {&quot;fillColor&quot;: &quot;#ff4000&quot;, &quot;fontColor&quot;: &quot;#ffffff&quot;},&#xa;        3: {&quot;fillColor&quot;: &quot;#ffdd00&quot;, &quot;fontColor&quot;: &quot;#000000&quot;},&#xa;        2: {&quot;fillColor&quot;: &quot;#d4ff00&quot;, &quot;fontColor&quot;: &quot;#000000&quot;},&#xa;        1: {&quot;fillColor&quot;: &quot;#40ff00&quot;, &quot;fontColor&quot;: &quot;#000000&quot;}&#xa;    }&#xa;    var matrix = [ &#xa;        [5, 5, 4, 3, 2], &#xa;        [5, 4, 4, 3, 2], &#xa;        [5, 4, 4, 3, 2], &#xa;        [4, 3, 3, 2, 1], &#xa;        [3, 2, 2, 1, 1], &#xa;    ];&#xa;    var result = {};&#xa;    &#xa;    if (&quot;Knowledge&quot; in collection.cellAttributes &amp;&amp; &quot;Resources&quot; in collection.cellAttributes) {&#xa;        var knowledgeIndex = parseInt(collection.cellAttributes[&quot;Knowledge&quot;]) - 1; &#xa;        var resourcesIndex = parseInt(collection.cellAttributes[&quot;Resources&quot;]) - 1;&#xa;        &#xa;        var value = Math.min(5, &#xa;            Math.max(collection.globalAttributes[&quot;Location&quot;].max, &#xa;                Math.max( matrix[knowledgeIndex][resourcesIndex] - parseInt(collection.cellAttributes[&quot;Location&quot;])) &#xa;            ));&#xa;        result = colorMatrix[value] || result;&#xa;        result[&quot;value&quot;] = value;&#xa;    }&#xa;    &#xa;    return result;&#xa;}" />
            <ag_computed_attributes_function name="Risk" id="6c831697g9i0a" default="" fn="function(collection){&#xa;    var riskMatrix = {&#xa;        &quot;V&quot;: {&quot;fillColor&quot;: &quot;#cc0000&quot;, &quot;fontColor&quot;: &quot;#ffffff&quot;},&#xa;        &quot;S&quot;: {&quot;fillColor&quot;: &quot;#ff4000&quot;, &quot;fontColor&quot;: &quot;#ffffff&quot;},&#xa;        &quot;M&quot;: {&quot;fillColor&quot;: &quot;#ffdd00&quot;, &quot;fontColor&quot;: &quot;#000000&quot;},&#xa;        &quot;L&quot;: {&quot;fillColor&quot;: &quot;#40ff00&quot;, &quot;fontColor&quot;: &quot;#000000&quot;},&#xa;    };&#xa;    var result = {};&#xa;    &#xa;    if (&quot;_risk&quot; in collection.cellAttributes) {&#xa;        var risk = collection.cellAttributes[&quot;_risk&quot;];&#xa;        result = riskMatrix[risk] || result;&#xa;        result[&quot;value&quot;] = risk;&#xa;    }&#xa;    &#xa;    return result; &#xa;}" />
          </ag_computed_attributes_functions>
          <mxCell />
        </object>
        <object id="1">
          <ag_attributes />
          <ag_computed_attributes />
          <mxCell parent="0" />
        </object>
        <object label="Angriffsziel&#xa;Intermodale Reisekette" id="uPvtzUqCq0j5UhJlTc7c-1">
          <ag_attributes />
          <ag_computed_attributes />
          <mxCell style="whiteSpace=wrap;shape=trapezoid;size=0.075;" parent="1" vertex="1">
            <mxGeometry x="1550" y="30" width="224" height="60" as="geometry" />
          </mxCell>
        </object>
        <object label="Verletzung von Gesetzen und Verordnungen" id="uPvtzUqCq0j5UhJlTc7c-2">
          <ag_attributes _risk="L" _marking="uPvtzUqCq0j5UhJlTc7c-3;uPvtzUqCq0j5UhJlTc7c-4" _weight="uPvtzUqCq0j5UhJlTc7c-3:3;uPvtzUqCq0j5UhJlTc7c-4:2" />
          <ag_computed_attributes fillColor="#40ff00" fontColor="#000000" value="L" />
          <ag_computed_attributes_function_reference ag_computed_attributes_function_reference="6c831697g9i0a" />
          <ag_aggregation_function_reference ag_aggregation_function_reference="egf49jfgj408" />
          <mxCell style="verticalAlign=middle;align=center;fillColor=#FFFFFF;gradientColor=none;labelBackgroundColor=none;rounded=1;whiteSpace=wrap;shape=attackgraphs.node;" parent="1" vertex="1">
            <mxGeometry x="2120" y="120" width="236" height="48" as="geometry" />
          </mxCell>
        </object>
        <object label="Aufdeckung privater Daten&#xa;(Standort, Biometrische Daten)" Resources="" Knowledge="" Location="" id="uPvtzUqCq0j5UhJlTc7c-3">
          <ag_attributes label="NaN" Resources="4" Knowledge="4" Location="1" _marking="uPvtzUqCq0j5UhJlTc7c-11" />
          <ag_computed_attributes fillColor="#40ff00" fontColor="#000000" value="1" />
          <ag_computed_attributes_function_reference ag_computed_attributes_function_reference="dbg60ff69g9a" />
          <ag_aggregation_function_reference ag_aggregation_function_reference="6b1d22791hih8" />
          <mxCell style="verticalAlign=top;align=center;fillColor=#FFFFFF;gradientColor=none;labelBackgroundColor=none;rounded=0;whiteSpace=wrap;shape=attackgraphs.node;spacingRight=20;" parent="1" vertex="1">
            <mxGeometry x="2160" y="360" width="193.5" height="60" as="geometry" />
          </mxCell>
        </object>
        <object label="Individuellem Nutzer nachstellen" Resources="" Knowledge="" Location="" id="uPvtzUqCq0j5UhJlTc7c-4">
          <ag_attributes label="NaN" Resources="4" Knowledge="4" Location="1" _marking="uPvtzUqCq0j5UhJlTc7c-7" />
          <ag_computed_attributes fillColor="#40ff00" fontColor="#000000" value="1" />
          <ag_aggregation_function_reference ag_aggregation_function_reference="6b1d22791hih8" />
          <ag_computed_attributes_function_reference ag_computed_attributes_function_reference="dbg60ff69g9a" />
          <mxCell style="verticalAlign=top;align=center;fillColor=#FFFFFF;gradientColor=none;labelBackgroundColor=none;rounded=0;whiteSpace=wrap;shape=attackgraphs.node;spacingRight=20;" parent="1" vertex="1">
            <mxGeometry x="2600" y="360" width="180" height="60" as="geometry" />
          </mxCell>
        </object>
        <object label="3" id="uPvtzUqCq0j5UhJlTc7c-5">
          <ag_attributes />
          <ag_computed_attributes />
          <mxCell style="endArrow=classic;startArrow=none;startFill=0;endFill=1;strokeWidth=2;strokeColor=#000000;fontSize=15;" parent="1" source="uPvtzUqCq0j5UhJlTc7c-2" target="uPvtzUqCq0j5UhJlTc7c-3" edge="1">
            <mxGeometry width="50" height="50" relative="1" as="geometry">
              <mxPoint x="2290" y="310" as="sourcePoint" />
              <mxPoint x="2520" y="570" as="targetPoint" />
            </mxGeometry>
          </mxCell>
        </object>
        <object label="2" id="uPvtzUqCq0j5UhJlTc7c-6">
          <ag_attributes />
          <ag_computed_attributes />
          <mxCell style="endArrow=classic;startArrow=none;startFill=0;endFill=1;strokeWidth=2;strokeColor=#000000;fontSize=15;" parent="1" source="uPvtzUqCq0j5UhJlTc7c-2" target="uPvtzUqCq0j5UhJlTc7c-4" edge="1">
            <mxGeometry width="50" height="50" relative="1" as="geometry">
              <mxPoint x="2430" y="300" as="sourcePoint" />
              <mxPoint x="2792.9799999999996" y="259.00800000000004" as="targetPoint" />
            </mxGeometry>
          </mxCell>
        </object>
        <object label="Kommunikation abhören" Resources="" Knowledge="" Location="" id="uPvtzUqCq0j5UhJlTc7c-7">
          <ag_attributes label="NaN" Resources="4" Knowledge="4" Location="1" _marking="uPvtzUqCq0j5UhJlTc7c-8" />
          <ag_computed_attributes fillColor="#40ff00" fontColor="#000000" value="1" />
          <ag_computed_attributes_function_reference ag_computed_attributes_function_reference="dbg60ff69g9a" />
          <ag_aggregation_function_reference ag_aggregation_function_reference="6b1d22791hih8" />
          <mxCell style="verticalAlign=top;align=center;fillColor=#FFFFFF;gradientColor=none;labelBackgroundColor=none;rounded=0;whiteSpace=wrap;shape=attackgraphs.node;spacingRight=20;" parent="1" vertex="1">
            <mxGeometry x="2380.5" y="560" width="160" height="60" as="geometry" />
          </mxCell>
        </object>
        <object id="eCq6edl6h6hgmWOPJE0u-16">
          <ag_attributes />
          <ag_computed_attributes />
          <mxCell style="edgeStyle=none;rounded=0;orthogonalLoop=1;jettySize=auto;html=1;strokeWidth=2;startArrow=diamondThin;startFill=1;endArrow=none;endFill=0;strokeColor=#000000;" parent="1" source="uPvtzUqCq0j5UhJlTc7c-8" target="_DiuqgOfEGZcNAKlj9fZ-1" edge="1">
            <mxGeometry relative="1" as="geometry">
              <mxPoint x="2781.999999999999" y="1670" as="targetPoint" />
            </mxGeometry>
          </mxCell>
        </object>
        <object id="eCq6edl6h6hgmWOPJE0u-14">
          <ag_attributes />
          <ag_computed_attributes />
          <mxCell style="edgeStyle=none;rounded=0;orthogonalLoop=1;jettySize=auto;html=1;strokeWidth=2;startArrow=diamondThin;startFill=1;endArrow=none;endFill=0;strokeColor=#000000;" parent="1" source="uPvtzUqCq0j5UhJlTc7c-9" target="_DiuqgOfEGZcNAKlj9fZ-2" edge="1">
            <mxGeometry relative="1" as="geometry" />
          </mxCell>
        </object>
        <object id="eCq6edl6h6hgmWOPJE0u-15">
          <ag_attributes />
          <ag_computed_attributes />
          <mxCell style="edgeStyle=none;rounded=0;orthogonalLoop=1;jettySize=auto;html=1;strokeWidth=2;startArrow=diamondThin;startFill=1;endArrow=none;endFill=0;strokeColor=#000000;" parent="1" source="uPvtzUqCq0j5UhJlTc7c-9" target="eCq6edl6h6hgmWOPJE0u-5" edge="1">
            <mxGeometry relative="1" as="geometry" />
          </mxCell>
        </object>
        <object label="Datensätze korrelieren" Resources="1" Knowledge="2" Location="0" id="uPvtzUqCq0j5UhJlTc7c-9">
          <ag_attributes label="NaN" Resources="4" Knowledge="5" Location="0" />
          <ag_computed_attributes fillColor="#40ff00" fontColor="#000000" value="1" />
          <ag_computed_attributes_function_reference ag_computed_attributes_function_reference="dbg60ff69g9a" />
          <ag_aggregation_function_reference ag_aggregation_function_reference="73f575i0ghij5" />
          <mxCell style="verticalAlign=top;align=center;fillColor=#d7e3bf;gradientColor=none;labelBackgroundColor=none;rounded=0;whiteSpace=wrap;shape=attackgraphs.node;spacingRight=20;" parent="1" vertex="1">
            <mxGeometry x="2694" y="560" width="160" height="60" as="geometry" />
          </mxCell>
        </object>
        <object label="Daten ausleiten" Resources="" Knowledge="" Location="" id="uPvtzUqCq0j5UhJlTc7c-11">
          <ag_attributes label="NaN" Resources="4" Knowledge="4" Location="1" _marking="uPvtzUqCq0j5UhJlTc7c-8" />
          <ag_computed_attributes fillColor="#40ff00" fontColor="#000000" value="1" />
          <ag_computed_attributes_function_reference ag_computed_attributes_function_reference="dbg60ff69g9a" />
          <ag_aggregation_function_reference ag_aggregation_function_reference="6b1d22791hih8" />
          <mxCell style="verticalAlign=top;align=center;fillColor=#FFFFFF;gradientColor=none;labelBackgroundColor=none;rounded=0;whiteSpace=wrap;shape=attackgraphs.node;spacingRight=20;" parent="1" vertex="1">
            <mxGeometry x="2220" y="560" width="144" height="60" as="geometry" />
          </mxCell>
        </object>
        <object id="eCq6edl6h6hgmWOPJE0u-22">
          <ag_attributes />
          <ag_computed_attributes />
          <mxCell style="edgeStyle=none;rounded=1;orthogonalLoop=1;jettySize=auto;html=1;strokeWidth=2;startArrow=diamondThin;startFill=1;endArrow=none;endFill=0;strokeColor=#000000;" parent="1" source="uPvtzUqCq0j5UhJlTc7c-13" target="eCq6edl6h6hgmWOPJE0u-21" edge="1">
            <mxGeometry relative="1" as="geometry">
              <Array as="points">
                <mxPoint x="1810" y="1120" />
              </Array>
            </mxGeometry>
          </mxCell>
        </object>
        <object id="uPvtzUqCq0j5UhJlTc7c-15">
          <ag_attributes />
          <ag_computed_attributes />
          <mxCell style="edgeStyle=none;startArrow=none;endArrow=classic;spacingTop=0;spacingBottom=0;spacingLeft=0;spacingRight=0;verticalAlign=middle;labelBackgroundColor=#ffffff;rounded=0;startFill=0;endFill=1;strokeWidth=2;strokeColor=#000000;" parent="1" source="uPvtzUqCq0j5UhJlTc7c-4" target="uPvtzUqCq0j5UhJlTc7c-9" edge="1">
            <mxGeometry relative="1" as="geometry">
              <mxPoint as="offset" />
              <Array as="points" />
              <mxPoint x="2538" y="388" as="sourcePoint" />
            </mxGeometry>
          </mxCell>
        </object>
        <object label="" id="uPvtzUqCq0j5UhJlTc7c-16">
          <ag_attributes />
          <ag_computed_attributes />
          <mxCell style="edgeStyle=none;startArrow=none;endArrow=classic;spacingTop=0;spacingBottom=0;spacingLeft=0;spacingRight=0;verticalAlign=middle;labelBackgroundColor=#ffffff;rounded=0;align=center;startFill=0;endFill=1;strokeWidth=2;strokeColor=#000000;" parent="1" source="uPvtzUqCq0j5UhJlTc7c-11" target="uPvtzUqCq0j5UhJlTc7c-13" edge="1">
            <mxGeometry relative="1" as="geometry">
              <mxPoint x="-1" y="-1" as="offset" />
              <Array as="points" />
            </mxGeometry>
          </mxCell>
        </object>
        <object label="" id="uPvtzUqCq0j5UhJlTc7c-18">
          <ag_attributes />
          <ag_computed_attributes />
          <mxCell style="edgeStyle=none;startArrow=none;endArrow=classic;spacingTop=0;spacingBottom=0;spacingLeft=0;spacingRight=0;verticalAlign=middle;labelBackgroundColor=#ffffff;rounded=0;align=center;startFill=0;endFill=1;strokeWidth=2;strokeColor=#000000;" parent="1" source="uPvtzUqCq0j5UhJlTc7c-3" target="uPvtzUqCq0j5UhJlTc7c-11" edge="1">
            <mxGeometry relative="1" as="geometry">
              <mxPoint y="-1" as="offset" />
              <Array as="points" />
              <mxPoint x="2280.999999999999" y="388" as="sourcePoint" />
            </mxGeometry>
          </mxCell>
        </object>
        <object id="uPvtzUqCq0j5UhJlTc7c-21">
          <ag_attributes />
          <ag_computed_attributes />
          <mxCell style="edgeStyle=none;startArrow=none;endArrow=classic;spacingTop=0;spacingBottom=0;spacingLeft=0;spacingRight=0;verticalAlign=middle;labelBackgroundColor=#ffffff;rounded=0;startFill=0;endFill=1;strokeWidth=2;strokeColor=#000000;" parent="1" source="uPvtzUqCq0j5UhJlTc7c-3" target="uPvtzUqCq0j5UhJlTc7c-7" edge="1">
            <mxGeometry relative="1" as="geometry">
              <mxPoint x="-1" y="-1" as="offset" />
              <Array as="points" />
              <mxPoint x="2320.999999999999" y="388" as="sourcePoint" />
            </mxGeometry>
          </mxCell>
        </object>
        <object label="" id="uPvtzUqCq0j5UhJlTc7c-22">
          <ag_attributes />
          <ag_computed_attributes />
          <mxCell style="edgeStyle=none;startArrow=none;endArrow=classic;spacingTop=0;spacingBottom=0;spacingLeft=0;spacingRight=0;verticalAlign=middle;labelBackgroundColor=#ffffff;rounded=0;align=center;startFill=0;endFill=1;strokeWidth=2;strokeColor=#000000;" parent="1" source="uPvtzUqCq0j5UhJlTc7c-7" target="uPvtzUqCq0j5UhJlTc7c-31" edge="1">
            <mxGeometry x="0.5312" relative="1" as="geometry">
              <mxPoint as="offset" />
              <Array as="points" />
              <mxPoint x="2445" y="848" as="targetPoint" />
            </mxGeometry>
          </mxCell>
        </object>
        <object label="" id="uPvtzUqCq0j5UhJlTc7c-23">
          <ag_attributes />
          <ag_computed_attributes />
          <mxCell style="edgeStyle=none;startArrow=none;endArrow=classic;spacingTop=0;spacingBottom=0;spacingLeft=0;spacingRight=0;verticalAlign=middle;labelBackgroundColor=#ffffff;rounded=0;align=center;startFill=0;endFill=1;strokeWidth=2;strokeColor=#000000;" parent="1" source="uPvtzUqCq0j5UhJlTc7c-7" target="uPvtzUqCq0j5UhJlTc7c-8" edge="1">
            <mxGeometry relative="1" as="geometry">
              <mxPoint as="offset" />
              <Array as="points" />
            </mxGeometry>
          </mxCell>
        </object>
        <object label="" id="uPvtzUqCq0j5UhJlTc7c-27">
          <ag_attributes />
          <ag_computed_attributes />
          <mxCell style="edgeStyle=none;startArrow=none;endArrow=classic;spacingTop=0;spacingBottom=0;spacingLeft=0;spacingRight=0;verticalAlign=middle;labelBackgroundColor=#ffffff;rounded=0;align=center;exitX=0.69;exitY=1.033;exitDx=0;exitDy=0;exitPerimeter=0;startFill=0;endFill=1;strokeWidth=2;strokeColor=#000000;" parent="1" source="uPvtzUqCq0j5UhJlTc7c-11" target="uPvtzUqCq0j5UhJlTc7c-31" edge="1">
            <mxGeometry relative="1" as="geometry">
              <mxPoint x="-1" y="-1" as="offset" />
              <Array as="points" />
              <mxPoint x="2412" y="735" as="sourcePoint" />
              <mxPoint x="2410.5279999999993" y="848.6800000000001" as="targetPoint" />
            </mxGeometry>
          </mxCell>
        </object>
        <object label="" id="uPvtzUqCq0j5UhJlTc7c-28">
          <ag_attributes />
          <ag_computed_attributes />
          <mxCell style="edgeStyle=none;startArrow=none;endArrow=classic;spacingTop=0;spacingBottom=0;spacingLeft=0;spacingRight=0;verticalAlign=middle;labelBackgroundColor=#ffffff;rounded=0;align=center;startFill=0;endFill=1;strokeWidth=2;strokeColor=#000000;" parent="1" source="uPvtzUqCq0j5UhJlTc7c-11" target="uPvtzUqCq0j5UhJlTc7c-8" edge="1">
            <mxGeometry x="0.6488" y="-3" relative="1" as="geometry">
              <mxPoint as="offset" />
              <Array as="points" />
              <mxPoint x="2261.3600000000006" y="736.155" as="sourcePoint" />
              <mxPoint x="2420.5280000000002" y="858.6800000000001" as="targetPoint" />
            </mxGeometry>
          </mxCell>
        </object>
        <object label="" id="uPvtzUqCq0j5UhJlTc7c-29">
          <ag_attributes />
          <ag_computed_attributes />
          <mxCell style="endArrow=classic;startArrow=none;startFill=0;endFill=1;strokeWidth=2;strokeColor=#000000;" parent="1" source="uPvtzUqCq0j5UhJlTc7c-3" target="uPvtzUqCq0j5UhJlTc7c-9" edge="1">
            <mxGeometry width="50" height="50" relative="1" as="geometry">
              <mxPoint x="2370" y="410" as="sourcePoint" />
              <mxPoint x="2670" y="420" as="targetPoint" />
            </mxGeometry>
          </mxCell>
        </object>
        <object label="" id="uPvtzUqCq0j5UhJlTc7c-30">
          <ag_attributes />
          <ag_computed_attributes />
          <mxCell style="endArrow=classic;startArrow=none;startFill=0;endFill=1;strokeWidth=2;strokeColor=#000000;" parent="1" source="uPvtzUqCq0j5UhJlTc7c-4" target="uPvtzUqCq0j5UhJlTc7c-7" edge="1">
            <mxGeometry width="50" height="50" relative="1" as="geometry">
              <mxPoint x="2570" y="460" as="sourcePoint" />
              <mxPoint x="2376.449438202247" y="398" as="targetPoint" />
            </mxGeometry>
          </mxCell>
        </object>
        <object id="eCq6edl6h6hgmWOPJE0u-12">
          <ag_attributes />
          <ag_computed_attributes />
          <mxCell style="edgeStyle=none;rounded=0;orthogonalLoop=1;jettySize=auto;html=1;strokeWidth=2;startArrow=diamondThin;startFill=1;endArrow=none;endFill=0;strokeColor=#000000;" parent="1" source="uPvtzUqCq0j5UhJlTc7c-31" target="eCq6edl6h6hgmWOPJE0u-7" edge="1">
            <mxGeometry relative="1" as="geometry" />
          </mxCell>
        </object>
        <object label="Kommunikationswege&#xa;abhören" Resources="2" Knowledge="2" Location="0" id="uPvtzUqCq0j5UhJlTc7c-31">
          <ag_attributes label="NaN" Resources="5" Knowledge="5" Location="0" />
          <ag_computed_attributes fillColor="#40ff00" fontColor="#000000" value="1" />
          <ag_computed_attributes_function_reference ag_computed_attributes_function_reference="dbg60ff69g9a" />
          <ag_aggregation_function_reference ag_aggregation_function_reference="73f575i0ghij5" />
          <mxCell style="verticalAlign=top;align=center;fillColor=#fee599;gradientColor=none;labelBackgroundColor=none;rounded=0;whiteSpace=wrap;shape=attackgraphs.node;spacingRight=20;" parent="1" vertex="1">
            <mxGeometry x="2258" y="760" width="144" height="60" as="geometry" />
          </mxCell>
        </object>
        <object label="Verletzung der Privatsphäre" id="uPvtzUqCq0j5UhJlTc7c-32">
          <ag_attributes _risk="L" _marking="uPvtzUqCq0j5UhJlTc7c-3;uPvtzUqCq0j5UhJlTc7c-4" _weight="uPvtzUqCq0j5UhJlTc7c-3:3;uPvtzUqCq0j5UhJlTc7c-4:2" />
          <ag_computed_attributes fillColor="#40ff00" fontColor="#000000" value="L" />
          <ag_computed_attributes_function_reference ag_computed_attributes_function_reference="6c831697g9i0a" />
          <ag_aggregation_function_reference ag_aggregation_function_reference="egf49jfgj408" />
          <mxCell style="verticalAlign=middle;align=center;fillColor=#FFFFFF;gradientColor=none;labelBackgroundColor=none;rounded=1;whiteSpace=wrap;shape=attackgraphs.node;" parent="1" vertex="1">
            <mxGeometry x="2609" y="120" width="180" height="48" as="geometry" />
          </mxCell>
        </object>
        <object label="3" id="uPvtzUqCq0j5UhJlTc7c-33">
          <ag_attributes />
          <ag_computed_attributes />
          <mxCell style="endArrow=classic;startArrow=none;startFill=0;endFill=1;strokeWidth=2;strokeColor=#000000;fontSize=15;" parent="1" source="uPvtzUqCq0j5UhJlTc7c-32" target="uPvtzUqCq0j5UhJlTc7c-3" edge="1">
            <mxGeometry width="50" height="50" relative="1" as="geometry">
              <mxPoint x="2407.753456221198" y="350" as="sourcePoint" />
              <mxPoint x="2633" y="280" as="targetPoint" />
            </mxGeometry>
          </mxCell>
        </object>
        <object label="2" id="uPvtzUqCq0j5UhJlTc7c-34">
          <ag_attributes />
          <ag_computed_attributes />
          <mxCell style="endArrow=classic;startArrow=none;startFill=0;endFill=1;strokeWidth=2;strokeColor=#000000;fontSize=15;" parent="1" source="uPvtzUqCq0j5UhJlTc7c-32" target="uPvtzUqCq0j5UhJlTc7c-4" edge="1">
            <mxGeometry width="50" height="50" relative="1" as="geometry">
              <mxPoint x="2770" y="290" as="sourcePoint" />
              <mxPoint x="2518" y="248" as="targetPoint" />
            </mxGeometry>
          </mxCell>
        </object>
        <object label="Finanzieller Schaden&#xa;Einzelperson" id="uPvtzUqCq0j5UhJlTc7c-35">
          <ag_attributes _risk="L" _marking="uPvtzUqCq0j5UhJlTc7c-41" _weight="uPvtzUqCq0j5UhJlTc7c-41:2" />
          <ag_computed_attributes fillColor="#40ff00" fontColor="#000000" value="L" />
          <ag_computed_attributes_function_reference ag_computed_attributes_function_reference="6c831697g9i0a" />
          <ag_aggregation_function_reference ag_aggregation_function_reference="egf49jfgj408" />
          <mxCell style="rounded=1;whiteSpace=wrap;shape=attackgraphs.node;" parent="1" vertex="1">
            <mxGeometry x="455" y="120" width="180" height="48" as="geometry" />
          </mxCell>
        </object>
        <object label="Finanzieller Schaden&#xa;Betreiber" id="uPvtzUqCq0j5UhJlTc7c-36">
          <ag_attributes _risk="L" _marking="eCq6edl6h6hgmWOPJE0u-34;uPvtzUqCq0j5UhJlTc7c-67" _weight="eCq6edl6h6hgmWOPJE0u-34:1;uPvtzUqCq0j5UhJlTc7c-67:3" />
          <ag_computed_attributes fillColor="#40ff00" fontColor="#000000" value="L" />
          <ag_computed_attributes_function_reference ag_computed_attributes_function_reference="6c831697g9i0a" />
          <ag_aggregation_function_reference ag_aggregation_function_reference="egf49jfgj408" />
          <mxCell style="verticalAlign=middle;align=center;fillColor=#FFFFFF;gradientColor=none;labelBackgroundColor=none;rounded=1;whiteSpace=wrap;shape=attackgraphs.node;" parent="1" vertex="1">
            <mxGeometry x="1322" y="120" width="180" height="48" as="geometry" />
          </mxCell>
        </object>
        <object label="Reputationsschaden Betreiber" id="uPvtzUqCq0j5UhJlTc7c-37">
          <ag_attributes _risk="L" _marking="eCq6edl6h6hgmWOPJE0u-34;uPvtzUqCq0j5UhJlTc7c-41;uPvtzUqCq0j5UhJlTc7c-67" _weight="eCq6edl6h6hgmWOPJE0u-34:1;uPvtzUqCq0j5UhJlTc7c-41:2;uPvtzUqCq0j5UhJlTc7c-67:3" />
          <ag_computed_attributes fillColor="#40ff00" fontColor="#000000" value="L" />
          <ag_computed_attributes_function_reference ag_computed_attributes_function_reference="6c831697g9i0a" />
          <ag_aggregation_function_reference ag_aggregation_function_reference="egf49jfgj408" />
          <mxCell style="verticalAlign=middle;align=center;fillColor=#FFFFFF;gradientColor=none;labelBackgroundColor=none;rounded=1;whiteSpace=wrap;shape=attackgraphs.node;" parent="1" vertex="1">
            <mxGeometry x="889" y="120" width="180" height="48" as="geometry" />
          </mxCell>
        </object>
        <object label="Marktmanipulation&#xa;zum Schaden/Vorteil einer Gruppe" id="uPvtzUqCq0j5UhJlTc7c-38">
          <ag_attributes _risk="L" _marking="uPvtzUqCq0j5UhJlTc7c-41;Zh3dSjUnpUvwRO7Crw0d-19" _weight="uPvtzUqCq0j5UhJlTc7c-41:2;Zh3dSjUnpUvwRO7Crw0d-19:2" />
          <ag_computed_attributes fillColor="#40ff00" fontColor="#000000" value="L" />
          <ag_computed_attributes_function_reference ag_computed_attributes_function_reference="6c831697g9i0a" />
          <ag_aggregation_function_reference ag_aggregation_function_reference="egf49jfgj408" />
          <mxCell style="verticalAlign=middle;align=center;fillColor=#ffffff;gradientColor=none;labelBackgroundColor=none;rounded=1;whiteSpace=wrap;shape=attackgraphs.node;" parent="1" vertex="1">
            <mxGeometry y="120" width="224" height="48" as="geometry" />
          </mxCell>
        </object>
        <object label="Roboterassistenten manipulieren" Resources="" Knowledge="" Location="" id="uPvtzUqCq0j5UhJlTc7c-40">
          <ag_attributes label="NaN" Resources="3" Knowledge="3" Location="1" _marking="uPvtzUqCq0j5UhJlTc7c-44" />
          <ag_computed_attributes fillColor="#ffdd00" fontColor="#000000" value="3" />
          <ag_computed_attributes_function_reference ag_computed_attributes_function_reference="dbg60ff69g9a" />
          <ag_aggregation_function_reference ag_aggregation_function_reference="6b1d22791hih8" />
          <mxCell style="verticalAlign=top;align=center;fillColor=#FFFFFF;gradientColor=none;labelBackgroundColor=none;rounded=0;whiteSpace=wrap;shape=attackgraphs.node;spacingRight=20;" parent="1" vertex="1">
            <mxGeometry x="1327.5" y="360" width="180" height="60" as="geometry" />
          </mxCell>
        </object>
        <object label="Automated Personal Assistent manipulieren" Resources="" Knowledge="" Location="" id="uPvtzUqCq0j5UhJlTc7c-41">
          <ag_attributes label="NaN" Resources="4" Knowledge="4" Location="1" _marking="uPvtzUqCq0j5UhJlTc7c-57" />
          <ag_computed_attributes fillColor="#40ff00" fontColor="#000000" value="1" />
          <ag_computed_attributes_function_reference ag_computed_attributes_function_reference="dbg60ff69g9a" />
          <ag_aggregation_function_reference ag_aggregation_function_reference="6b1d22791hih8" />
          <mxCell style="verticalAlign=top;align=center;fillColor=#FFFFFF;gradientColor=none;labelBackgroundColor=none;rounded=0;whiteSpace=wrap;shape=attackgraphs.node;spacingRight=20;" parent="1" vertex="1">
            <mxGeometry x="49.5" y="360" width="180" height="60" as="geometry" />
          </mxCell>
        </object>
        <object label="Reiseempfehlungen manipulieren" Resources="" Knowledge="" Location="" id="uPvtzUqCq0j5UhJlTc7c-42">
          <ag_attributes label="NaN" Resources="4" Knowledge="4" Location="1" _marking="uPvtzUqCq0j5UhJlTc7c-43" />
          <ag_computed_attributes fillColor="#40ff00" fontColor="#000000" value="1" />
          <ag_computed_attributes_function_reference ag_computed_attributes_function_reference="dbg60ff69g9a" />
          <ag_aggregation_function_reference ag_aggregation_function_reference="6b1d22791hih8" />
          <mxCell style="verticalAlign=top;align=center;fillColor=#FFFFFF;gradientColor=none;labelBackgroundColor=none;rounded=0;whiteSpace=wrap;shape=attackgraphs.node;spacingRight=20;" parent="1" vertex="1">
            <mxGeometry x="60.5" y="560" width="180" height="60" as="geometry" />
          </mxCell>
        </object>
        <object label="Manipulation Maschinelles Lernen" Resources="" Knowledge="" Location="" id="uPvtzUqCq0j5UhJlTc7c-43">
          <ag_attributes label="NaN" Resources="4" Knowledge="4" Location="1" _marking="PANx_2H3_iy-v-Putqux-5" />
          <ag_computed_attributes fillColor="#40ff00" fontColor="#000000" value="1" />
          <ag_computed_attributes_function_reference ag_computed_attributes_function_reference="dbg60ff69g9a" />
          <ag_aggregation_function_reference ag_aggregation_function_reference="6b1d22791hih8" />
          <mxCell style="verticalAlign=top;align=center;gradientColor=none;labelBackgroundColor=none;rounded=0;whiteSpace=wrap;shape=attackgraphs.node;spacingRight=20;" parent="1" vertex="1">
            <mxGeometry x="-30" y="760" width="180" height="60" as="geometry" />
          </mxCell>
        </object>
        <object id="eCq6edl6h6hgmWOPJE0u-36">
          <ag_attributes />
          <ag_computed_attributes />
          <mxCell style="edgeStyle=none;rounded=0;orthogonalLoop=1;jettySize=auto;html=1;strokeWidth=2;startArrow=diamondThin;startFill=1;endArrow=none;endFill=0;strokeColor=#000000;" parent="1" source="uPvtzUqCq0j5UhJlTc7c-44" target="eCq6edl6h6hgmWOPJE0u-8" edge="1">
            <mxGeometry relative="1" as="geometry" />
          </mxCell>
        </object>
        <object label="Roboterassisten physisch sabotieren / zerstören" Resources="2" Knowledge="1" Location="1" id="uPvtzUqCq0j5UhJlTc7c-44">
          <ag_attributes label="NaN" Resources="3" Knowledge="3" Location="1" />
          <ag_computed_attributes fillColor="#ffdd00" fontColor="#000000" value="3" />
          <ag_computed_attributes_function_reference ag_computed_attributes_function_reference="dbg60ff69g9a" />
          <ag_aggregation_function_reference ag_aggregation_function_reference="73f575i0ghij5" />
          <mxCell style="verticalAlign=top;align=center;labelBackgroundColor=none;rounded=0;whiteSpace=wrap;fillColor=#FEE599;shape=attackgraphs.node;spacingRight=20;" parent="1" vertex="1">
            <mxGeometry x="1880" y="560" width="180" height="60" as="geometry" />
          </mxCell>
        </object>
        <object label="" id="uPvtzUqCq0j5UhJlTc7c-45">
          <ag_attributes />
          <ag_computed_attributes />
          <mxCell style="endArrow=classic;fontColor=#FEE599;startArrow=none;startFill=0;endFill=1;strokeWidth=2;strokeColor=#000000;" parent="1" source="uPvtzUqCq0j5UhJlTc7c-41" target="uPvtzUqCq0j5UhJlTc7c-57" edge="1">
            <mxGeometry width="50" height="50" relative="1" as="geometry">
              <mxPoint x="680" y="398" as="sourcePoint" />
              <mxPoint x="1044" y="410" as="targetPoint" />
            </mxGeometry>
          </mxCell>
        </object>
        <object label="" id="uPvtzUqCq0j5UhJlTc7c-46">
          <ag_attributes />
          <ag_computed_attributes />
          <mxCell style="endArrow=classic;fontColor=#FEE599;startArrow=none;startFill=0;endFill=1;strokeWidth=2;strokeColor=#000000;" parent="1" source="uPvtzUqCq0j5UhJlTc7c-42" target="uPvtzUqCq0j5UhJlTc7c-43" edge="1">
            <mxGeometry width="50" height="50" relative="1" as="geometry">
              <mxPoint x="1166.1538461538462" y="700" as="sourcePoint" />
              <mxPoint x="1077.8461538461538" y="618" as="targetPoint" />
            </mxGeometry>
          </mxCell>
        </object>
        <object label="Gepäckziel manipulieren" Resources="" Knowledge="" Location="" id="uPvtzUqCq0j5UhJlTc7c-47">
          <ag_attributes label="NaN" Resources="5" Knowledge="5" Location="1" _marking="uPvtzUqCq0j5UhJlTc7c-48" />
          <ag_computed_attributes fillColor="#40ff00" fontColor="#000000" value="1" />
          <ag_computed_attributes_function_reference ag_computed_attributes_function_reference="dbg60ff69g9a" />
          <ag_aggregation_function_reference ag_aggregation_function_reference="6b1d22791hih8" />
          <mxCell style="verticalAlign=top;align=center;fillColor=#FFFFFF;gradientColor=none;labelBackgroundColor=none;rounded=0;whiteSpace=wrap;shape=attackgraphs.node;spacingRight=20;" parent="1" vertex="1">
            <mxGeometry x="1210" y="560" width="180" height="60" as="geometry" />
          </mxCell>
        </object>
        <object id="eCq6edl6h6hgmWOPJE0u-19">
          <ag_attributes />
          <ag_computed_attributes />
          <mxCell style="edgeStyle=none;orthogonalLoop=1;jettySize=auto;html=1;strokeWidth=2;startArrow=diamondThin;startFill=1;endArrow=none;endFill=0;strokeColor=#000000;rounded=0;" parent="1" source="uPvtzUqCq0j5UhJlTc7c-48" target="eCq6edl6h6hgmWOPJE0u-9" edge="1">
            <mxGeometry relative="1" as="geometry">
              <Array as="points" />
            </mxGeometry>
          </mxCell>
        </object>
        <object id="eCq6edl6h6hgmWOPJE0u-20">
          <ag_attributes />
          <ag_computed_attributes />
          <mxCell style="edgeStyle=none;orthogonalLoop=1;jettySize=auto;html=1;strokeWidth=2;startArrow=diamondThin;startFill=1;endArrow=none;endFill=0;strokeColor=#000000;rounded=1;" parent="1" source="uPvtzUqCq0j5UhJlTc7c-48" target="eCq6edl6h6hgmWOPJE0u-18" edge="1">
            <mxGeometry relative="1" as="geometry">
              <Array as="points">
                <mxPoint x="1680" y="1360" />
              </Array>
            </mxGeometry>
          </mxCell>
        </object>
        <object label="GNSS spoofing" Resources="3" Knowledge="3" Location="1" id="uPvtzUqCq0j5UhJlTc7c-48">
          <ag_attributes label="NaN" Resources="5" Knowledge="5" Location="1" />
          <ag_computed_attributes fillColor="#40ff00" fontColor="#000000" value="1" />
          <ag_computed_attributes_function_reference ag_computed_attributes_function_reference="dbg60ff69g9a" />
          <ag_aggregation_function_reference ag_aggregation_function_reference="73f575i0ghij5" />
          <mxCell style="verticalAlign=top;align=center;labelBackgroundColor=none;rounded=0;whiteSpace=wrap;fillColor=#D7E3BF;shape=attackgraphs.node;spacingRight=20;" parent="1" vertex="1">
            <mxGeometry x="930" y="760" width="180" height="60" as="geometry" />
          </mxCell>
        </object>
        <object label="" id="uPvtzUqCq0j5UhJlTc7c-49">
          <ag_attributes />
          <ag_computed_attributes />
          <mxCell style="endArrow=classic;fontColor=#FEE599;startArrow=none;startFill=0;endFill=1;strokeWidth=2;strokeColor=#000000;" parent="1" source="uPvtzUqCq0j5UhJlTc7c-40" target="uPvtzUqCq0j5UhJlTc7c-47" edge="1">
            <mxGeometry width="50" height="50" relative="1" as="geometry">
              <mxPoint x="1440" y="420" as="sourcePoint" />
              <mxPoint x="1240" y="450" as="targetPoint" />
            </mxGeometry>
          </mxCell>
        </object>
        <object label="" id="uPvtzUqCq0j5UhJlTc7c-50">
          <ag_attributes />
          <ag_computed_attributes />
          <mxCell style="endArrow=classic;fontColor=#FEE599;startArrow=none;startFill=0;endFill=1;strokeWidth=2;strokeColor=#000000;" parent="1" source="uPvtzUqCq0j5UhJlTc7c-40" target="uPvtzUqCq0j5UhJlTc7c-44" edge="1">
            <mxGeometry width="50" height="50" relative="1" as="geometry">
              <mxPoint x="1424" y="480" as="sourcePoint" />
              <mxPoint x="1810" y="440" as="targetPoint" />
            </mxGeometry>
          </mxCell>
        </object>
        <object label="" id="uPvtzUqCq0j5UhJlTc7c-51">
          <ag_attributes />
          <ag_computed_attributes />
          <mxCell style="endArrow=classic;fontColor=#FEE599;startArrow=none;startFill=0;endFill=1;strokeWidth=2;strokeColor=#000000;" parent="1" source="uPvtzUqCq0j5UhJlTc7c-47" target="uPvtzUqCq0j5UhJlTc7c-48" edge="1">
            <mxGeometry width="50" height="50" relative="1" as="geometry">
              <mxPoint x="1212" y="740" as="sourcePoint" />
              <mxPoint x="1442.6153846153848" y="618" as="targetPoint" />
            </mxGeometry>
          </mxCell>
        </object>
        <object label="3" id="uPvtzUqCq0j5UhJlTc7c-52">
          <ag_attributes />
          <ag_computed_attributes />
          <mxCell style="html=1;endArrow=classic;fontColor=#F000000;startArrow=none;startFill=0;endFill=1;strokeWidth=2;strokeColor=#000000;fontSize=15;" parent="1" source="uPvtzUqCq0j5UhJlTc7c-36" target="eCq6edl6h6hgmWOPJE0u-34" edge="1">
            <mxGeometry width="50" height="50" relative="1" as="geometry">
              <mxPoint x="1411.8461538461538" y="610" as="sourcePoint" />
              <mxPoint x="1220" y="360" as="targetPoint" />
            </mxGeometry>
          </mxCell>
        </object>
        <object label="2" id="uPvtzUqCq0j5UhJlTc7c-53">
          <ag_attributes />
          <ag_computed_attributes />
          <mxCell style="endArrow=classic;fontColor=#000000;startArrow=none;startFill=0;endFill=1;strokeWidth=2;strokeColor=#000000;fontSize=15;" parent="1" source="uPvtzUqCq0j5UhJlTc7c-38" target="uPvtzUqCq0j5UhJlTc7c-41" edge="1">
            <mxGeometry width="50" height="50" relative="1" as="geometry">
              <mxPoint x="680" y="320" as="sourcePoint" />
              <mxPoint x="1616.4" y="258" as="targetPoint" />
            </mxGeometry>
          </mxCell>
        </object>
        <object label="2" id="uPvtzUqCq0j5UhJlTc7c-54">
          <ag_attributes />
          <ag_computed_attributes />
          <mxCell style="endArrow=classic;fontColor=#000000;startArrow=none;startFill=0;endFill=1;strokeWidth=2;strokeColor=#000000;fontSize=15;" parent="1" source="uPvtzUqCq0j5UhJlTc7c-35" target="uPvtzUqCq0j5UhJlTc7c-41" edge="1">
            <mxGeometry width="50" height="50" relative="1" as="geometry">
              <mxPoint x="1040.88" y="360" as="sourcePoint" />
              <mxPoint x="1050" y="330" as="targetPoint" />
            </mxGeometry>
          </mxCell>
        </object>
        <object label="2" id="uPvtzUqCq0j5UhJlTc7c-55">
          <ag_attributes />
          <ag_computed_attributes />
          <mxCell style="endArrow=classic;fontColor=#F000000;startArrow=none;startFill=0;endFill=1;strokeWidth=2;fillColor=#000000;strokeColor=#000000;fontSize=15;html=1;" parent="1" source="uPvtzUqCq0j5UhJlTc7c-37" target="eCq6edl6h6hgmWOPJE0u-34" edge="1">
            <mxGeometry width="50" height="50" relative="1" as="geometry">
              <mxPoint x="1250" y="360" as="sourcePoint" />
              <mxPoint x="1400" y="350" as="targetPoint" />
            </mxGeometry>
          </mxCell>
        </object>
        <object label="2" id="uPvtzUqCq0j5UhJlTc7c-56">
          <ag_attributes />
          <ag_computed_attributes />
          <mxCell style="endArrow=classic;fontColor=#000000;startArrow=none;startFill=0;endFill=1;strokeWidth=2;strokeColor=#000000;fontSize=15;" parent="1" source="uPvtzUqCq0j5UhJlTc7c-37" target="uPvtzUqCq0j5UhJlTc7c-41" edge="1">
            <mxGeometry width="50" height="50" relative="1" as="geometry">
              <mxPoint x="1150" y="374" as="sourcePoint" />
              <mxPoint x="1356" y="258" as="targetPoint" />
            </mxGeometry>
          </mxCell>
        </object>
        <object label="Unautorisierte Reisen buchen" Resources="" Knowledge="" Location="" id="uPvtzUqCq0j5UhJlTc7c-57">
          <ag_attributes label="NaN" Resources="4" Knowledge="4" Location="1" _marking="uPvtzUqCq0j5UhJlTc7c-43" />
          <ag_computed_attributes fillColor="#40ff00" fontColor="#000000" value="1" />
          <ag_computed_attributes_function_reference ag_computed_attributes_function_reference="dbg60ff69g9a" />
          <ag_aggregation_function_reference ag_aggregation_function_reference="6b1d22791hih8" />
          <mxCell style="verticalAlign=top;align=center;fillColor=#FFFFFF;gradientColor=none;labelBackgroundColor=none;rounded=0;whiteSpace=wrap;shape=attackgraphs.node;spacingRight=20;" parent="1" vertex="1">
            <mxGeometry x="-130" y="560" width="180" height="60" as="geometry" />
          </mxCell>
        </object>
        <object label="" id="uPvtzUqCq0j5UhJlTc7c-58">
          <ag_attributes />
          <ag_computed_attributes />
          <mxCell style="endArrow=classic;fontColor=#FEE599;startArrow=none;startFill=0;endFill=1;strokeWidth=2;strokeColor=#000000;" parent="1" source="uPvtzUqCq0j5UhJlTc7c-57" target="uPvtzUqCq0j5UhJlTc7c-43" edge="1">
            <mxGeometry width="50" height="50" relative="1" as="geometry">
              <mxPoint x="920.8571428571431" y="700" as="sourcePoint" />
              <mxPoint x="722" y="620" as="targetPoint" />
            </mxGeometry>
          </mxCell>
        </object>
        <object label="" id="uPvtzUqCq0j5UhJlTc7c-60">
          <ag_attributes />
          <ag_computed_attributes />
          <mxCell style="endArrow=classic;fontColor=#FEE599;startArrow=none;startFill=0;endFill=1;strokeWidth=2;strokeColor=#000000;" parent="1" source="uPvtzUqCq0j5UhJlTc7c-41" target="uPvtzUqCq0j5UhJlTc7c-42" edge="1">
            <mxGeometry width="50" height="50" relative="1" as="geometry">
              <mxPoint x="1060" y="390" as="sourcePoint" />
              <mxPoint x="1071.4925373134329" y="398" as="targetPoint" />
            </mxGeometry>
          </mxCell>
        </object>
        <object id="eCq6edl6h6hgmWOPJE0u-37">
          <ag_attributes />
          <ag_computed_attributes />
          <mxCell style="edgeStyle=none;orthogonalLoop=1;jettySize=auto;html=1;strokeWidth=2;startArrow=diamondThin;startFill=1;endArrow=none;endFill=0;strokeColor=#000000;curved=1;" parent="1" source="uPvtzUqCq0j5UhJlTc7c-61" target="eCq6edl6h6hgmWOPJE0u-21" edge="1">
            <mxGeometry relative="1" as="geometry">
              <Array as="points">
                <mxPoint x="710" y="1180" />
              </Array>
            </mxGeometry>
          </mxCell>
        </object>
        <object label="Fahrscheinkontrolle manipulieren&#xa;(siehe Kontaktlose Fahrscheinkontrolle)" Resources="2" Knowledge="2" Location="0" id="uPvtzUqCq0j5UhJlTc7c-61">
          <ag_attributes label="NaN" Resources="4" Knowledge="5" Location="0" />
          <ag_computed_attributes fillColor="#40ff00" fontColor="#000000" value="1" />
          <ag_computed_attributes_function_reference ag_computed_attributes_function_reference="dbg60ff69g9a" />
          <ag_aggregation_function_reference ag_aggregation_function_reference="73f575i0ghij5" />
          <mxCell style="verticalAlign=top;align=center;fillColor=#FEE599;labelBackgroundColor=none;rounded=0;whiteSpace=wrap;strokeColor=#000000;shape=attackgraphs.node;spacingRight=20;" parent="1" vertex="1">
            <mxGeometry x="250.5" y="560" width="240" height="60" as="geometry" />
          </mxCell>
        </object>
        <object label="" id="uPvtzUqCq0j5UhJlTc7c-64">
          <ag_attributes />
          <ag_computed_attributes />
          <mxCell style="endArrow=classic;fontColor=#FEE599;startArrow=none;startFill=0;endFill=1;strokeWidth=2;strokeColor=#000000;" parent="1" source="uPvtzUqCq0j5UhJlTc7c-41" target="uPvtzUqCq0j5UhJlTc7c-61" edge="1">
            <mxGeometry width="50" height="50" relative="1" as="geometry">
              <mxPoint x="930" y="420" as="sourcePoint" />
              <mxPoint x="1035.6716417910447" y="398" as="targetPoint" />
            </mxGeometry>
          </mxCell>
        </object>
        <object label="Voice Activation auslösen" Resources="3" Knowledge="3" Location="0" id="uPvtzUqCq0j5UhJlTc7c-65">
          <ag_attributes label="NaN" Resources="4" Knowledge="4" Location="0" />
          <ag_computed_attributes fillColor="#d4ff00" fontColor="#000000" value="2" />
          <ag_computed_attributes_function_reference ag_computed_attributes_function_reference="dbg60ff69g9a" />
          <ag_aggregation_function_reference ag_aggregation_function_reference="73f575i0ghij5" />
          <mxCell style="verticalAlign=top;align=center;gradientColor=none;labelBackgroundColor=none;rounded=0;whiteSpace=wrap;fillColor=#D7E3BF;shape=attackgraphs.node;spacingRight=20;" parent="1" vertex="1">
            <mxGeometry x="-254" y="1000" width="180" height="60" as="geometry" />
          </mxCell>
        </object>
        <object label="" id="uPvtzUqCq0j5UhJlTc7c-66">
          <ag_attributes />
          <ag_computed_attributes />
          <mxCell style="endArrow=classic;fontColor=#FEE599;startArrow=none;startFill=0;endFill=1;exitX=0;exitY=0.25;exitDx=0;exitDy=0;exitPerimeter=0;strokeWidth=2;strokeColor=#000000;" parent="1" source="kVZn4hKlKfzOOjyC7Y9h-1" target="uPvtzUqCq0j5UhJlTc7c-65" edge="1">
            <mxGeometry width="50" height="50" relative="1" as="geometry">
              <mxPoint x="142.45161290322585" y="794" as="sourcePoint" />
              <mxPoint x="-79.25" y="960" as="targetPoint" />
            </mxGeometry>
          </mxCell>
        </object>
        <object label="Smart Contracts manipulieren" Resources="" Knowledge="" Location="" id="uPvtzUqCq0j5UhJlTc7c-67">
          <ag_attributes label="NaN" Resources="5" Knowledge="5" Location="0" _marking="Zh3dSjUnpUvwRO7Crw0d-17" />
          <ag_computed_attributes fillColor="#40ff00" fontColor="#000000" value="1" />
          <ag_computed_attributes_function_reference ag_computed_attributes_function_reference="dbg60ff69g9a" />
          <ag_aggregation_function_reference ag_aggregation_function_reference="6b1d22791hih8" />
          <mxCell style="verticalAlign=top;align=center;fillColor=#FFFFFF;gradientColor=none;labelBackgroundColor=none;rounded=0;whiteSpace=wrap;shape=attackgraphs.node;spacingRight=20;" parent="1" vertex="1">
            <mxGeometry x="901.5" y="360" width="180" height="60" as="geometry" />
          </mxCell>
        </object>
        <object label="3" id="uPvtzUqCq0j5UhJlTc7c-68">
          <ag_attributes />
          <ag_computed_attributes />
          <mxCell style="endArrow=classic;fontColor=#000000;startArrow=none;startFill=0;endFill=1;strokeWidth=2;strokeColor=#000000;fontSize=15;" parent="1" source="uPvtzUqCq0j5UhJlTc7c-36" target="uPvtzUqCq0j5UhJlTc7c-67" edge="1">
            <mxGeometry width="50" height="50" relative="1" as="geometry">
              <mxPoint x="1473.6" y="360" as="sourcePoint" />
              <mxPoint x="1740" y="300" as="targetPoint" />
            </mxGeometry>
          </mxCell>
        </object>
        <object label="3" id="uPvtzUqCq0j5UhJlTc7c-69">
          <ag_attributes />
          <ag_computed_attributes />
          <mxCell style="endArrow=classic;fontColor=#000000;startArrow=none;startFill=0;endFill=1;strokeWidth=2;strokeColor=#000000;fontSize=15;" parent="1" source="uPvtzUqCq0j5UhJlTc7c-37" target="uPvtzUqCq0j5UhJlTc7c-67" edge="1">
            <mxGeometry width="50" height="50" relative="1" as="geometry">
              <mxPoint x="1270" y="300" as="sourcePoint" />
              <mxPoint x="1653.1999999999998" y="258" as="targetPoint" />
            </mxGeometry>
          </mxCell>
        </object>
        <object id="eCq6edl6h6hgmWOPJE0u-11">
          <ag_attributes />
          <ag_computed_attributes />
          <mxCell style="edgeStyle=none;orthogonalLoop=1;jettySize=auto;html=1;strokeWidth=2;startArrow=diamondThin;startFill=1;endArrow=none;endFill=0;strokeColor=#000000;rounded=0;" parent="1" source="uPvtzUqCq0j5UhJlTc7c-70" target="eCq6edl6h6hgmWOPJE0u-9" edge="1">
            <mxGeometry relative="1" as="geometry">
              <Array as="points" />
            </mxGeometry>
          </mxCell>
        </object>
        <object id="eCq6edl6h6hgmWOPJE0u-13">
          <ag_attributes />
          <ag_computed_attributes />
          <mxCell style="edgeStyle=none;rounded=0;orthogonalLoop=1;jettySize=auto;html=1;strokeWidth=2;startArrow=diamondThin;startFill=1;endArrow=none;endFill=0;strokeColor=#000000;" parent="1" source="uPvtzUqCq0j5UhJlTc7c-70" target="eCq6edl6h6hgmWOPJE0u-7" edge="1">
            <mxGeometry relative="1" as="geometry" />
          </mxCell>
        </object>
        <object label="Manipulation der Kommunikation" Resources="3" Knowledge="3" Location="0" id="uPvtzUqCq0j5UhJlTc7c-70">
          <ag_attributes label="NaN" Resources="5" Knowledge="5" Location="1" />
          <ag_computed_attributes fillColor="#40ff00" fontColor="#000000" value="1" />
          <ag_computed_attributes_function_reference ag_computed_attributes_function_reference="dbg60ff69g9a" />
          <ag_aggregation_function_reference ag_aggregation_function_reference="73f575i0ghij5" />
          <mxCell style="verticalAlign=top;align=center;gradientColor=none;labelBackgroundColor=none;rounded=0;whiteSpace=wrap;fillColor=#FEE599;shape=attackgraphs.node;spacingRight=20;" parent="1" vertex="1">
            <mxGeometry x="1125.5" y="760" width="224" height="60" as="geometry" />
          </mxCell>
        </object>
        <object label="" id="uPvtzUqCq0j5UhJlTc7c-71">
          <ag_attributes />
          <ag_computed_attributes />
          <mxCell style="endArrow=classic;fontColor=#FEE599;startArrow=none;startFill=0;endFill=1;strokeWidth=2;strokeColor=#000000;" parent="1" source="uPvtzUqCq0j5UhJlTc7c-47" target="uPvtzUqCq0j5UhJlTc7c-70" edge="1">
            <mxGeometry width="50" height="50" relative="1" as="geometry">
              <mxPoint x="1485" y="760" as="sourcePoint" />
              <mxPoint x="1366.5783132530119" y="738" as="targetPoint" />
            </mxGeometry>
          </mxCell>
        </object>
        <object label="Manipulation des Datenbestandes" Resources="" Knowledge="" Location="" id="uPvtzUqCq0j5UhJlTc7c-72">
          <ag_attributes label="NaN" Resources="5" Knowledge="5" Location="1" _marking="kVZn4hKlKfzOOjyC7Y9h-11" />
          <ag_computed_attributes fillColor="#40ff00" fontColor="#000000" value="1" />
          <ag_computed_attributes_function_reference ag_computed_attributes_function_reference="dbg60ff69g9a" />
          <ag_aggregation_function_reference ag_aggregation_function_reference="6b1d22791hih8" />
          <mxCell style="verticalAlign=top;align=center;fillColor=#FFFFFF;gradientColor=none;labelBackgroundColor=none;rounded=0;whiteSpace=wrap;shape=attackgraphs.node;spacingRight=20;" parent="1" vertex="1">
            <mxGeometry x="1390" y="760" width="224" height="60" as="geometry" />
          </mxCell>
        </object>
        <object label="" id="uPvtzUqCq0j5UhJlTc7c-73">
          <ag_attributes />
          <ag_computed_attributes />
          <mxCell style="endArrow=classic;fontColor=#FEE599;startArrow=none;startFill=0;endFill=1;strokeWidth=2;strokeColor=#000000;" parent="1" source="uPvtzUqCq0j5UhJlTc7c-47" target="uPvtzUqCq0j5UhJlTc7c-72" edge="1">
            <mxGeometry width="50" height="50" relative="1" as="geometry">
              <mxPoint x="1172" y="728" as="sourcePoint" />
              <mxPoint x="1368.5060240963853" y="738" as="targetPoint" />
            </mxGeometry>
          </mxCell>
        </object>
        <object label="Sprachbefehl einspielen" Resources="3" Knowledge="3" Location="0" id="PANx_2H3_iy-v-Putqux-1">
          <ag_attributes label="NaN" Resources="4" Knowledge="4" Location="0" />
          <ag_computed_attributes fillColor="#d4ff00" fontColor="#000000" value="2" />
          <ag_computed_attributes_function_reference ag_computed_attributes_function_reference="dbg60ff69g9a" />
          <ag_aggregation_function_reference ag_aggregation_function_reference="73f575i0ghij5" />
          <mxCell style="verticalAlign=top;align=center;gradientColor=none;labelBackgroundColor=none;rounded=0;whiteSpace=wrap;fillColor=#D7E3BF;shape=attackgraphs.node;spacingRight=20;" parent="1" vertex="1">
            <mxGeometry x="-64" y="1000" width="180" height="60" as="geometry" />
          </mxCell>
        </object>
        <object label="" id="PANx_2H3_iy-v-Putqux-3">
          <ag_attributes />
          <ag_computed_attributes />
          <mxCell style="endArrow=classic;fontColor=#FEE599;startArrow=none;startFill=0;endFill=1;exitX=0;exitY=0.75;exitDx=0;exitDy=0;exitPerimeter=0;strokeWidth=2;strokeColor=#000000;" parent="1" source="kVZn4hKlKfzOOjyC7Y9h-1" target="PANx_2H3_iy-v-Putqux-1" edge="1">
            <mxGeometry width="50" height="50" relative="1" as="geometry">
              <mxPoint x="117.1491712707184" y="1042" as="sourcePoint" />
              <mxPoint x="-58.75" y="960" as="targetPoint" />
            </mxGeometry>
          </mxCell>
        </object>
        <object label="" id="PANx_2H3_iy-v-Putqux-4">
          <ag_attributes />
          <ag_computed_attributes />
          <mxCell style="endArrow=classic;fontColor=#FEE599;startArrow=none;startFill=0;endFill=1;entryX=1;entryY=0.5;entryDx=0;entryDy=0;entryPerimeter=0;strokeWidth=2;strokeColor=#000000;" parent="1" source="uPvtzUqCq0j5UhJlTc7c-43" target="kVZn4hKlKfzOOjyC7Y9h-1" edge="1">
            <mxGeometry width="50" height="50" relative="1" as="geometry">
              <mxPoint x="773.1491712707184" y="1042" as="sourcePoint" />
              <mxPoint x="831.75" y="975.5" as="targetPoint" />
            </mxGeometry>
          </mxCell>
        </object>
        <object id="eCq6edl6h6hgmWOPJE0u-27">
          <ag_attributes />
          <ag_computed_attributes />
          <mxCell style="edgeStyle=none;rounded=0;orthogonalLoop=1;jettySize=auto;html=1;strokeWidth=2;startArrow=diamondThin;startFill=1;endArrow=none;endFill=0;strokeColor=#000000;" parent="1" source="PANx_2H3_iy-v-Putqux-5" target="eCq6edl6h6hgmWOPJE0u-26" edge="1">
            <mxGeometry relative="1" as="geometry">
              <mxPoint x="220" y="1080" as="sourcePoint" />
            </mxGeometry>
          </mxCell>
        </object>
        <object label="Chatbot manipulieren" Resources="2" Knowledge="2" Location="1" id="PANx_2H3_iy-v-Putqux-5">
          <ag_attributes label="NaN" Resources="4" Knowledge="4" Location="1" />
          <ag_computed_attributes fillColor="#40ff00" fontColor="#000000" value="1" />
          <ag_computed_attributes_function_reference ag_computed_attributes_function_reference="dbg60ff69g9a" />
          <ag_aggregation_function_reference ag_aggregation_function_reference="73f575i0ghij5" />
          <mxCell style="verticalAlign=top;align=center;gradientColor=none;labelBackgroundColor=none;rounded=0;whiteSpace=wrap;fillColor=#D7E3BF;shape=attackgraphs.node;spacingRight=20;" parent="1" vertex="1">
            <mxGeometry x="126" y="1000" width="180" height="60" as="geometry" />
          </mxCell>
        </object>
        <object id="eCq6edl6h6hgmWOPJE0u-28">
          <ag_attributes />
          <ag_computed_attributes />
          <mxCell style="edgeStyle=none;rounded=0;orthogonalLoop=1;jettySize=auto;html=1;strokeWidth=2;startArrow=diamondThin;startFill=1;endArrow=none;endFill=0;strokeColor=#000000;" parent="1" source="PANx_2H3_iy-v-Putqux-6" target="eCq6edl6h6hgmWOPJE0u-26" edge="1">
            <mxGeometry relative="1" as="geometry">
              <mxPoint x="400" y="1090" as="sourcePoint" />
            </mxGeometry>
          </mxCell>
        </object>
        <object label="Als Chatbot ausgeben" Resources="3" Knowledge="3" Location="0" id="PANx_2H3_iy-v-Putqux-6">
          <ag_attributes label="NaN" Resources="5" Knowledge="5" Location="1" />
          <ag_computed_attributes fillColor="#40ff00" fontColor="#000000" value="1" />
          <ag_computed_attributes_function_reference ag_computed_attributes_function_reference="dbg60ff69g9a" />
          <ag_aggregation_function_reference ag_aggregation_function_reference="73f575i0ghij5" />
          <mxCell style="verticalAlign=top;align=center;gradientColor=none;labelBackgroundColor=none;rounded=0;whiteSpace=wrap;fillColor=#D7E3BF;shape=attackgraphs.node;spacingRight=20;" parent="1" vertex="1">
            <mxGeometry x="316" y="1000" width="180" height="60" as="geometry" />
          </mxCell>
        </object>
        <object label="" id="PANx_2H3_iy-v-Putqux-7">
          <ag_attributes />
          <ag_computed_attributes />
          <mxCell style="endArrow=classic;fontColor=#FEE599;startArrow=none;startFill=0;endFill=1;strokeWidth=2;strokeColor=#000000;" parent="1" source="uPvtzUqCq0j5UhJlTc7c-43" target="PANx_2H3_iy-v-Putqux-5" edge="1">
            <mxGeometry width="50" height="50" relative="1" as="geometry">
              <mxPoint x="777" y="945.5" as="sourcePoint" />
              <mxPoint x="844.0245398773004" y="888" as="targetPoint" />
            </mxGeometry>
          </mxCell>
        </object>
        <object label="" id="PANx_2H3_iy-v-Putqux-8">
          <ag_attributes />
          <ag_computed_attributes />
          <mxCell style="endArrow=classic;fontColor=#FEE599;startArrow=none;startFill=0;endFill=1;strokeWidth=2;strokeColor=#000000;" parent="1" source="uPvtzUqCq0j5UhJlTc7c-43" target="PANx_2H3_iy-v-Putqux-6" edge="1">
            <mxGeometry width="50" height="50" relative="1" as="geometry">
              <mxPoint x="1073.6289156626508" y="1047.5" as="sourcePoint" />
              <mxPoint x="898.3710843373492" y="888" as="targetPoint" />
            </mxGeometry>
          </mxCell>
        </object>
        <object label="Einspeisen verfälschter Daten" Resources="3" Knowledge="3" Location="0" id="PANx_2H3_iy-v-Putqux-9">
          <ag_attributes label="NaN" Resources="5" Knowledge="5" Location="1" />
          <ag_computed_attributes fillColor="#40ff00" fontColor="#000000" value="1" />
          <ag_computed_attributes_function_reference ag_computed_attributes_function_reference="dbg60ff69g9a" />
          <ag_aggregation_function_reference ag_aggregation_function_reference="73f575i0ghij5" />
          <mxCell style="whiteSpace=wrap;rounded=0;fillColor=#D7E3BF;strokeColor=#000000;shape=attackgraphs.node;spacingRight=20;verticalAlign=top;" parent="1" vertex="1">
            <mxGeometry x="-436.5" y="1360" width="150" height="60" as="geometry" />
          </mxCell>
        </object>
        <object label="" id="PANx_2H3_iy-v-Putqux-10">
          <ag_attributes />
          <ag_computed_attributes />
          <mxCell style="endArrow=classic;fontColor=#FEE599;exitX=0;exitY=0.75;exitDx=0;exitDy=0;startArrow=none;startFill=0;endFill=1;exitPerimeter=0;strokeWidth=2;spacingRight=20;verticalAlign=top;strokeColor=#000000;" parent="1" source="kVZn4hKlKfzOOjyC7Y9h-2" target="PANx_2H3_iy-v-Putqux-9" edge="1">
            <mxGeometry width="50" height="50" relative="1" as="geometry">
              <mxPoint x="632" y="1140" as="sourcePoint" />
              <mxPoint x="597" y="1288" as="targetPoint" />
            </mxGeometry>
          </mxCell>
        </object>
        <object label="Manipulation des Datenbestandes" Resources="" Knowledge="" Location="" id="PANx_2H3_iy-v-Putqux-11">
          <ag_attributes label="NaN" Resources="5" Knowledge="5" Location="1" _marking="PANx_2H3_iy-v-Putqux-31" />
          <ag_computed_attributes fillColor="#40ff00" fontColor="#000000" value="1" />
          <ag_computed_attributes_function_reference ag_computed_attributes_function_reference="dbg60ff69g9a" />
          <ag_aggregation_function_reference ag_aggregation_function_reference="6b1d22791hih8" />
          <mxCell style="verticalAlign=top;align=center;fillColor=#FFFFFF;gradientColor=none;labelBackgroundColor=none;rounded=0;whiteSpace=wrap;shape=attackgraphs.node;spacingRight=20;" parent="1" vertex="1">
            <mxGeometry x="-486.5" y="1000" width="224" height="60" as="geometry" />
          </mxCell>
        </object>
        <object label="" id="PANx_2H3_iy-v-Putqux-12">
          <ag_attributes />
          <ag_computed_attributes />
          <mxCell style="endArrow=classic;fontColor=#FEE599;startArrow=none;startFill=0;endFill=1;strokeWidth=2;strokeColor=#000000;" parent="1" source="uPvtzUqCq0j5UhJlTc7c-43" target="PANx_2H3_iy-v-Putqux-11" edge="1">
            <mxGeometry width="50" height="50" relative="1" as="geometry">
              <mxPoint x="1398.3614457831327" y="1003" as="sourcePoint" />
              <mxPoint x="1278.4580152671756" y="910" as="targetPoint" />
            </mxGeometry>
          </mxCell>
        </object>
        <object id="eCq6edl6h6hgmWOPJE0u-30">
          <ag_attributes />
          <ag_computed_attributes />
          <mxCell style="edgeStyle=none;rounded=0;orthogonalLoop=1;jettySize=auto;html=1;strokeWidth=2;startArrow=diamondThin;startFill=1;endArrow=none;endFill=0;strokeColor=#000000;" parent="1" source="PANx_2H3_iy-v-Putqux-14" target="eCq6edl6h6hgmWOPJE0u-29" edge="1">
            <mxGeometry relative="1" as="geometry">
              <mxPoint x="623" y="1320" as="sourcePoint" />
            </mxGeometry>
          </mxCell>
        </object>
        <object label="Verwendung unbrauchbarer Daten" Resources="2" Knowledge="2" Location="1" id="PANx_2H3_iy-v-Putqux-14">
          <ag_attributes label="NaN" Resources="5" Knowledge="5" Location="1" />
          <ag_computed_attributes fillColor="#40ff00" fontColor="#000000" value="1" />
          <ag_computed_attributes_function_reference ag_computed_attributes_function_reference="dbg60ff69g9a" />
          <ag_aggregation_function_reference ag_aggregation_function_reference="73f575i0ghij5" />
          <mxCell style="whiteSpace=wrap;rounded=0;fillColor=#D7E3BF;strokeColor=#000000;shape=attackgraphs.node;verticalAlign=top;spacingRight=20;" parent="1" vertex="1">
            <mxGeometry x="544" y="1240" width="150" height="60" as="geometry" />
          </mxCell>
        </object>
        <object id="eCq6edl6h6hgmWOPJE0u-31">
          <ag_attributes />
          <ag_computed_attributes />
          <mxCell style="edgeStyle=none;rounded=0;orthogonalLoop=1;jettySize=auto;html=1;strokeWidth=2;startArrow=diamondThin;startFill=1;endArrow=none;endFill=0;strokeColor=#000000;" parent="1" source="PANx_2H3_iy-v-Putqux-15" target="eCq6edl6h6hgmWOPJE0u-29" edge="1">
            <mxGeometry relative="1" as="geometry">
              <mxPoint x="760" y="1320" as="sourcePoint" />
            </mxGeometry>
          </mxCell>
        </object>
        <object label="Eingabe falscher, ungenauer Algorithmen" Resources="3" Knowledge="3" Location="1" id="PANx_2H3_iy-v-Putqux-15">
          <ag_attributes label="NaN" Resources="5" Knowledge="5" Location="1" />
          <ag_computed_attributes fillColor="#40ff00" fontColor="#000000" value="1" />
          <ag_computed_attributes_function_reference ag_computed_attributes_function_reference="dbg60ff69g9a" />
          <ag_aggregation_function_reference ag_aggregation_function_reference="73f575i0ghij5" />
          <mxCell style="whiteSpace=wrap;rounded=0;fillColor=#D7E3BF;strokeColor=#000000;shape=attackgraphs.node;verticalAlign=top;spacingRight=20;" parent="1" vertex="1">
            <mxGeometry x="712" y="1240" width="150" height="60" as="geometry" />
          </mxCell>
        </object>
        <object label="" id="PANx_2H3_iy-v-Putqux-16">
          <ag_attributes />
          <ag_computed_attributes />
          <mxCell style="edgeStyle=none;rounded=0;orthogonalLoop=1;jettySize=auto;endArrow=classic;endFill=1;strokeWidth=2;strokeColor=#000000;" parent="1" source="PANx_2H3_iy-v-Putqux-13" target="PANx_2H3_iy-v-Putqux-14" edge="1">
            <mxGeometry relative="1" as="geometry">
              <mxPoint x="620" y="934.5" as="sourcePoint" />
              <mxPoint x="725" y="1184.5" as="targetPoint" />
            </mxGeometry>
          </mxCell>
        </object>
        <object label="" id="PANx_2H3_iy-v-Putqux-17">
          <ag_attributes />
          <ag_computed_attributes />
          <mxCell style="edgeStyle=none;rounded=0;orthogonalLoop=1;jettySize=auto;endArrow=classic;endFill=1;strokeWidth=2;strokeColor=#000000;" parent="1" source="PANx_2H3_iy-v-Putqux-13" target="PANx_2H3_iy-v-Putqux-15" edge="1">
            <mxGeometry relative="1" as="geometry">
              <mxPoint x="815" y="1074.5" as="sourcePoint" />
              <mxPoint x="735" y="1194.5" as="targetPoint" />
            </mxGeometry>
          </mxCell>
        </object>
        <object label="" id="PANx_2H3_iy-v-Putqux-18">
          <ag_attributes />
          <ag_computed_attributes />
          <mxCell style="edgeStyle=none;rounded=0;orthogonalLoop=1;jettySize=auto;entryX=0.5;entryY=0;entryDx=0;entryDy=0;endArrow=classic;endFill=1;strokeWidth=2;strokeColor=#000000;" parent="1" source="uPvtzUqCq0j5UhJlTc7c-43" target="PANx_2H3_iy-v-Putqux-13" edge="1">
            <mxGeometry relative="1" as="geometry">
              <mxPoint x="1361" y="1060" as="sourcePoint" />
              <mxPoint x="1352" y="990" as="targetPoint" />
            </mxGeometry>
          </mxCell>
        </object>
        <object label="Erlangung Zugriff Rechenzentrum vor Ort" Resources="3" Knowledge="3" Location="1" id="PANx_2H3_iy-v-Putqux-19">
          <ag_attributes label="NaN" Resources="4" Knowledge="4" Location="1" />
          <ag_computed_attributes fillColor="#40ff00" fontColor="#000000" value="1" />
          <ag_computed_attributes_function_reference ag_computed_attributes_function_reference="dbg60ff69g9a" />
          <ag_aggregation_function_reference ag_aggregation_function_reference="73f575i0ghij5" />
          <mxCell style="whiteSpace=wrap;rounded=0;fillColor=#D7E3BF;strokeColor=#000000;shape=attackgraphs.node;spacingRight=20;verticalAlign=top;" parent="1" vertex="1">
            <mxGeometry x="-780" y="1360" width="150" height="60" as="geometry" />
          </mxCell>
        </object>
        <object label="Erlangung Zugriff Rechenzentrum remote" Resources="3" Knowledge="3" Location="0" id="PANx_2H3_iy-v-Putqux-20">
          <ag_attributes label="NaN" Resources="4" Knowledge="4" Location="0" />
          <ag_computed_attributes fillColor="#d4ff00" fontColor="#000000" value="2" />
          <ag_computed_attributes_function_reference ag_computed_attributes_function_reference="dbg60ff69g9a" />
          <ag_aggregation_function_reference ag_aggregation_function_reference="73f575i0ghij5" />
          <mxCell style="whiteSpace=wrap;rounded=0;fillColor=#D7E3BF;strokeColor=#000000;shape=attackgraphs.node;spacingRight=20;verticalAlign=top;" parent="1" vertex="1">
            <mxGeometry x="-608" y="1360" width="150" height="60" as="geometry" />
          </mxCell>
        </object>
        <object label="" id="PANx_2H3_iy-v-Putqux-22">
          <ag_attributes />
          <ag_computed_attributes />
          <mxCell style="edgeStyle=none;rounded=0;orthogonalLoop=1;jettySize=auto;entryX=1;entryY=0.5;entryDx=0;entryDy=0;entryPerimeter=0;jumpStyle=arc;exitX=0;exitY=0.25;exitDx=0;exitDy=0;exitPerimeter=0;endArrow=classic;endFill=1;strokeWidth=2;spacingRight=20;verticalAlign=top;strokeColor=#000000;" parent="1" source="kVZn4hKlKfzOOjyC7Y9h-2" target="kVZn4hKlKfzOOjyC7Y9h-3" edge="1">
            <mxGeometry relative="1" as="geometry">
              <mxPoint x="476" y="1270" as="sourcePoint" />
              <mxPoint x="292" y="1336" as="targetPoint" />
            </mxGeometry>
          </mxCell>
        </object>
        <object label="" id="PANx_2H3_iy-v-Putqux-24">
          <ag_attributes />
          <ag_computed_attributes />
          <mxCell style="edgeStyle=none;rounded=0;orthogonalLoop=1;jettySize=auto;exitX=0.175;exitY=0.25;exitDx=0;exitDy=0;exitPerimeter=0;jumpStyle=arc;endArrow=classic;endFill=1;strokeWidth=2;spacingRight=20;verticalAlign=top;strokeColor=#000000;" parent="1" source="kVZn4hKlKfzOOjyC7Y9h-3" target="PANx_2H3_iy-v-Putqux-19" edge="1">
            <mxGeometry relative="1" as="geometry">
              <mxPoint x="221" y="1342" as="sourcePoint" />
              <mxPoint x="260" y="1369.5" as="targetPoint" />
            </mxGeometry>
          </mxCell>
        </object>
        <object label="" id="PANx_2H3_iy-v-Putqux-25">
          <ag_attributes />
          <ag_computed_attributes />
          <mxCell style="edgeStyle=none;rounded=0;orthogonalLoop=1;jettySize=auto;exitX=0.175;exitY=0.75;exitDx=0;exitDy=0;exitPerimeter=0;jumpStyle=arc;endArrow=classic;endFill=1;strokeWidth=2;spacingRight=20;verticalAlign=top;strokeColor=#000000;" parent="1" source="kVZn4hKlKfzOOjyC7Y9h-3" target="PANx_2H3_iy-v-Putqux-20" edge="1">
            <mxGeometry relative="1" as="geometry">
              <mxPoint x="253.75" y="1386" as="sourcePoint" />
              <mxPoint x="288.63924050632886" y="1435" as="targetPoint" />
            </mxGeometry>
          </mxCell>
        </object>
        <object label="Einspeisen zusätzlicher, verfälschter &quot;Erfahrungswerte&quot;" Resources="" Knowledge="" Location="" id="PANx_2H3_iy-v-Putqux-29">
          <ag_attributes label="NaN" Resources="5" Knowledge="5" Location="1" _marking="kVZn4hKlKfzOOjyC7Y9h-2" />
          <ag_computed_attributes fillColor="#40ff00" fontColor="#000000" value="1" />
          <ag_computed_attributes_function_reference ag_computed_attributes_function_reference="dbg60ff69g9a" />
          <ag_aggregation_function_reference ag_aggregation_function_reference="6b1d22791hih8" />
          <mxCell style="whiteSpace=wrap;rounded=0;shape=attackgraphs.node;spacingRight=20;verticalAlign=top;" parent="1" vertex="1">
            <mxGeometry x="-590" y="1158.75" width="216.5" height="60" as="geometry" />
          </mxCell>
        </object>
        <object label="Manipulation der Testfälle" Resources="" Knowledge="" Location="" id="PANx_2H3_iy-v-Putqux-30">
          <ag_attributes label="NaN" Resources="5" Knowledge="5" Location="1" _marking="kVZn4hKlKfzOOjyC7Y9h-8" />
          <ag_computed_attributes fillColor="#40ff00" fontColor="#000000" value="1" />
          <ag_computed_attributes_function_reference ag_computed_attributes_function_reference="dbg60ff69g9a" />
          <ag_aggregation_function_reference ag_aggregation_function_reference="6b1d22791hih8" />
          <mxCell style="whiteSpace=wrap;rounded=0;shape=attackgraphs.node;verticalAlign=top;spacingRight=20;" parent="1" vertex="1">
            <mxGeometry x="932" y="1000" width="150" height="60" as="geometry" />
          </mxCell>
        </object>
        <object label="Manipulation der Label der &quot;korrekten&quot; Daten" Resources="" Knowledge="" Location="" id="PANx_2H3_iy-v-Putqux-31">
          <ag_attributes label="NaN" Resources="5" Knowledge="5" Location="1" _marking="kVZn4hKlKfzOOjyC7Y9h-5" />
          <ag_computed_attributes fillColor="#40ff00" fontColor="#000000" value="1" />
          <ag_computed_attributes_function_reference ag_computed_attributes_function_reference="dbg60ff69g9a" />
          <ag_aggregation_function_reference ag_aggregation_function_reference="6b1d22791hih8" />
          <mxCell style="whiteSpace=wrap;rounded=0;shape=attackgraphs.node;spacingRight=20;verticalAlign=top;" parent="1" vertex="1">
            <mxGeometry x="-366.5" y="1158.75" width="156.5" height="60" as="geometry" />
          </mxCell>
        </object>
        <object label="Einspeisen verfälschter Daten" Resources="3" Knowledge="3" Location="0" id="PANx_2H3_iy-v-Putqux-32">
          <ag_attributes label="NaN" Resources="5" Knowledge="5" Location="1" />
          <ag_computed_attributes fillColor="#40ff00" fontColor="#000000" value="1" />
          <ag_computed_attributes_function_reference ag_computed_attributes_function_reference="dbg60ff69g9a" />
          <ag_aggregation_function_reference ag_aggregation_function_reference="73f575i0ghij5" />
          <mxCell style="whiteSpace=wrap;rounded=0;fillColor=#D7E3BF;strokeColor=#000000;shape=attackgraphs.node;verticalAlign=top;spacingRight=20;" parent="1" vertex="1">
            <mxGeometry x="1216" y="1240" width="150" height="60" as="geometry" />
          </mxCell>
        </object>
        <object label="" id="PANx_2H3_iy-v-Putqux-33">
          <ag_attributes />
          <ag_computed_attributes />
          <mxCell style="endArrow=classic;fontColor=#FEE599;startArrow=none;startFill=0;endFill=1;exitX=0;exitY=0.75;exitDx=0;exitDy=0;exitPerimeter=0;strokeWidth=2;strokeColor=#000000;" parent="1" source="kVZn4hKlKfzOOjyC7Y9h-8" target="PANx_2H3_iy-v-Putqux-32" edge="1">
            <mxGeometry width="50" height="50" relative="1" as="geometry">
              <mxPoint x="1396" y="1120" as="sourcePoint" />
              <mxPoint x="1253" y="898" as="targetPoint" />
            </mxGeometry>
          </mxCell>
        </object>
        <object label="Erlangung Zugriff Rechenzentrum vor Ort" Resources="3" Knowledge="3" Location="1" id="PANx_2H3_iy-v-Putqux-34">
          <ag_attributes label="NaN" Resources="3" Knowledge="3" Location="1" />
          <ag_computed_attributes fillColor="#ffdd00" fontColor="#000000" value="3" />
          <ag_computed_attributes_function_reference ag_computed_attributes_function_reference="dbg60ff69g9a" />
          <ag_aggregation_function_reference ag_aggregation_function_reference="73f575i0ghij5" />
          <mxCell style="whiteSpace=wrap;rounded=0;fillColor=#D7E3BF;strokeColor=#000000;shape=attackgraphs.node;verticalAlign=top;spacingRight=20;" parent="1" vertex="1">
            <mxGeometry x="880" y="1240" width="150" height="60" as="geometry" />
          </mxCell>
        </object>
        <object label="Erlangung Zugriff Rechenzentrum remote" Resources="3" Knowledge="3" Location="0" id="PANx_2H3_iy-v-Putqux-35">
          <ag_attributes label="NaN" Resources="3" Knowledge="3" Location="0" />
          <ag_computed_attributes fillColor="#ff4000" fontColor="#ffffff" value="4" />
          <ag_computed_attributes_function_reference ag_computed_attributes_function_reference="dbg60ff69g9a" />
          <ag_aggregation_function_reference ag_aggregation_function_reference="73f575i0ghij5" />
          <mxCell style="whiteSpace=wrap;rounded=0;fillColor=#D7E3BF;strokeColor=#000000;shape=attackgraphs.node;verticalAlign=top;spacingRight=20;" parent="1" vertex="1">
            <mxGeometry x="1048" y="1240" width="150" height="60" as="geometry" />
          </mxCell>
        </object>
        <object label="" id="PANx_2H3_iy-v-Putqux-39">
          <ag_attributes />
          <ag_computed_attributes />
          <mxCell style="edgeStyle=none;rounded=0;orthogonalLoop=1;jettySize=auto;exitX=0.175;exitY=0.25;exitDx=0;exitDy=0;exitPerimeter=0;jumpStyle=arc;endArrow=classic;endFill=1;strokeWidth=2;strokeColor=#000000;" parent="1" source="kVZn4hKlKfzOOjyC7Y9h-9" target="PANx_2H3_iy-v-Putqux-34" edge="1">
            <mxGeometry relative="1" as="geometry">
              <mxPoint x="927" y="1152" as="sourcePoint" />
              <mxPoint x="966" y="1179.5" as="targetPoint" />
            </mxGeometry>
          </mxCell>
        </object>
        <object label="" id="PANx_2H3_iy-v-Putqux-40">
          <ag_attributes />
          <ag_computed_attributes />
          <mxCell style="edgeStyle=none;rounded=0;orthogonalLoop=1;jettySize=auto;exitX=0.175;exitY=0.75;exitDx=0;exitDy=0;exitPerimeter=0;jumpStyle=arc;endArrow=classic;endFill=1;strokeWidth=2;strokeColor=#000000;" parent="1" source="kVZn4hKlKfzOOjyC7Y9h-9" target="PANx_2H3_iy-v-Putqux-35" edge="1">
            <mxGeometry relative="1" as="geometry">
              <mxPoint x="959.75" y="1196" as="sourcePoint" />
              <mxPoint x="994.6392405063289" y="1245" as="targetPoint" />
            </mxGeometry>
          </mxCell>
        </object>
        <object label="" id="PANx_2H3_iy-v-Putqux-41">
          <ag_attributes />
          <ag_computed_attributes />
          <mxCell style="edgeStyle=none;rounded=0;orthogonalLoop=1;jettySize=auto;entryX=1;entryY=0.5;entryDx=0;entryDy=0;entryPerimeter=0;jumpStyle=arc;strokeWidth=2;strokeColor=#000000;" parent="1" source="PANx_2H3_iy-v-Putqux-30" target="kVZn4hKlKfzOOjyC7Y9h-8" edge="1">
            <mxGeometry relative="1" as="geometry">
              <mxPoint x="1378" y="1048" as="sourcePoint" />
              <mxPoint x="1144" y="1192.5" as="targetPoint" />
            </mxGeometry>
          </mxCell>
        </object>
        <object label="" id="PANx_2H3_iy-v-Putqux-43">
          <ag_attributes />
          <ag_computed_attributes />
          <mxCell style="edgeStyle=none;rounded=0;orthogonalLoop=1;jettySize=auto;entryX=0.408;entryY=-0.008;entryDx=0;entryDy=0;entryPerimeter=0;jumpStyle=arc;endArrow=classic;endFill=1;strokeWidth=2;strokeColor=#000000;" parent="1" source="uPvtzUqCq0j5UhJlTc7c-43" target="PANx_2H3_iy-v-Putqux-30" edge="1">
            <mxGeometry relative="1" as="geometry">
              <mxPoint x="1336" y="1053.953781512605" as="sourcePoint" />
              <mxPoint x="1514" y="1082" as="targetPoint" />
            </mxGeometry>
          </mxCell>
        </object>
        <object label="" id="PANx_2H3_iy-v-Putqux-44">
          <ag_attributes />
          <ag_computed_attributes />
          <mxCell style="edgeStyle=none;rounded=0;orthogonalLoop=1;jettySize=auto;jumpStyle=arc;endArrow=classic;endFill=1;strokeWidth=2;strokeColor=#000000;" parent="1" source="PANx_2H3_iy-v-Putqux-11" target="PANx_2H3_iy-v-Putqux-31" edge="1">
            <mxGeometry relative="1" as="geometry">
              <mxPoint x="734.865217970937" y="888" as="sourcePoint" />
              <mxPoint x="1064.96" y="1014.02" as="targetPoint" />
            </mxGeometry>
          </mxCell>
        </object>
        <object label="" id="PANx_2H3_iy-v-Putqux-45">
          <ag_attributes />
          <ag_computed_attributes />
          <mxCell style="edgeStyle=none;rounded=0;orthogonalLoop=1;jettySize=auto;jumpStyle=arc;endArrow=classic;endFill=1;strokeWidth=2;strokeColor=#000000;" parent="1" source="PANx_2H3_iy-v-Putqux-11" target="PANx_2H3_iy-v-Putqux-29" edge="1">
            <mxGeometry relative="1" as="geometry">
              <mxPoint x="637.7142857142858" y="1062.5" as="sourcePoint" />
              <mxPoint x="664.8571428571427" y="1110" as="targetPoint" />
            </mxGeometry>
          </mxCell>
        </object>
        <object label="Einspeisen verfälschter Daten" Resources="3" Knowledge="3" Location="0" id="PANx_2H3_iy-v-Putqux-46">
          <ag_attributes label="NaN" Resources="5" Knowledge="5" Location="1" />
          <ag_computed_attributes fillColor="#40ff00" fontColor="#000000" value="1" />
          <ag_computed_attributes_function_reference ag_computed_attributes_function_reference="dbg60ff69g9a" />
          <ag_aggregation_function_reference ag_aggregation_function_reference="73f575i0ghij5" />
          <mxCell style="whiteSpace=wrap;rounded=0;fillColor=#D7E3BF;strokeColor=#000000;shape=attackgraphs.node;verticalAlign=top;spacingRight=20;" parent="1" vertex="1">
            <mxGeometry x="1645" y="1000" width="150" height="60" as="geometry" />
          </mxCell>
        </object>
        <object label="" id="PANx_2H3_iy-v-Putqux-47">
          <ag_attributes />
          <ag_computed_attributes />
          <mxCell style="endArrow=classic;fontColor=#FEE599;startArrow=none;startFill=0;endFill=1;exitX=0;exitY=0.75;exitDx=0;exitDy=0;exitPerimeter=0;strokeWidth=2;strokeColor=#000000;" parent="1" source="kVZn4hKlKfzOOjyC7Y9h-11" target="PANx_2H3_iy-v-Putqux-46" edge="1">
            <mxGeometry width="50" height="50" relative="1" as="geometry">
              <mxPoint x="1162" y="909" as="sourcePoint" />
              <mxPoint x="1352" y="889" as="targetPoint" />
            </mxGeometry>
          </mxCell>
        </object>
        <object label="Erlangung Zugriff Rechenzentrum vor Ort" Resources="3" Knowledge="3" Location="1" id="PANx_2H3_iy-v-Putqux-48">
          <ag_attributes label="NaN" Resources="3" Knowledge="3" Location="1" />
          <ag_computed_attributes fillColor="#ffdd00" fontColor="#000000" value="3" />
          <ag_computed_attributes_function_reference ag_computed_attributes_function_reference="dbg60ff69g9a" />
          <ag_aggregation_function_reference ag_aggregation_function_reference="73f575i0ghij5" />
          <mxCell style="whiteSpace=wrap;rounded=0;fillColor=#D7E3BF;strokeColor=#000000;shape=attackgraphs.node;verticalAlign=top;spacingRight=20;" parent="1" vertex="1">
            <mxGeometry x="1320" y="1000" width="150" height="60" as="geometry" />
          </mxCell>
        </object>
        <object label="Erlangung Zugriff Rechenzentrum remote" Resources="3" Knowledge="3" Location="0" id="PANx_2H3_iy-v-Putqux-49">
          <ag_attributes label="NaN" Resources="3" Knowledge="3" Location="0" />
          <ag_computed_attributes fillColor="#ff4000" fontColor="#ffffff" value="4" />
          <ag_computed_attributes_function_reference ag_computed_attributes_function_reference="dbg60ff69g9a" />
          <ag_aggregation_function_reference ag_aggregation_function_reference="73f575i0ghij5" />
          <mxCell style="whiteSpace=wrap;rounded=0;fillColor=#D7E3BF;strokeColor=#000000;shape=attackgraphs.node;verticalAlign=top;spacingRight=20;" parent="1" vertex="1">
            <mxGeometry x="1479" y="1000" width="150" height="60" as="geometry" />
          </mxCell>
        </object>
        <object label="" id="PANx_2H3_iy-v-Putqux-53">
          <ag_attributes />
          <ag_computed_attributes />
          <mxCell style="edgeStyle=none;rounded=0;orthogonalLoop=1;jettySize=auto;exitX=0.175;exitY=0.25;exitDx=0;exitDy=0;exitPerimeter=0;jumpStyle=arc;endArrow=classic;endFill=1;strokeWidth=2;strokeColor=#000000;" parent="1" source="kVZn4hKlKfzOOjyC7Y9h-12" target="PANx_2H3_iy-v-Putqux-48" edge="1">
            <mxGeometry relative="1" as="geometry">
              <mxPoint x="1123" y="976" as="sourcePoint" />
              <mxPoint x="1162" y="1003.5" as="targetPoint" />
            </mxGeometry>
          </mxCell>
        </object>
        <object label="" id="PANx_2H3_iy-v-Putqux-54">
          <ag_attributes />
          <ag_computed_attributes />
          <mxCell style="edgeStyle=none;rounded=0;orthogonalLoop=1;jettySize=auto;jumpStyle=arc;endArrow=classic;endFill=1;strokeWidth=2;exitX=0.175;exitY=0.75;exitDx=0;exitDy=0;exitPerimeter=0;strokeColor=#000000;" parent="1" source="kVZn4hKlKfzOOjyC7Y9h-12" target="PANx_2H3_iy-v-Putqux-49" edge="1">
            <mxGeometry relative="1" as="geometry">
              <mxPoint x="1362" y="977" as="sourcePoint" />
              <mxPoint x="1190.6392405063289" y="1069" as="targetPoint" />
            </mxGeometry>
          </mxCell>
        </object>
        <object label="" id="PANx_2H3_iy-v-Putqux-56">
          <ag_attributes />
          <ag_computed_attributes />
          <mxCell style="edgeStyle=none;rounded=0;orthogonalLoop=1;jettySize=auto;jumpStyle=arc;endArrow=classic;endFill=1;strokeWidth=2;strokeColor=#000000;" parent="1" source="uPvtzUqCq0j5UhJlTc7c-72" target="kVZn4hKlKfzOOjyC7Y9h-11" edge="1">
            <mxGeometry relative="1" as="geometry">
              <mxPoint x="1336" y="1014.453781512605" as="sourcePoint" />
              <mxPoint x="1310.5" y="830" as="targetPoint" />
            </mxGeometry>
          </mxCell>
        </object>
        <object label="" id="Zh3dSjUnpUvwRO7Crw0d-4">
          <ag_attributes />
          <ag_computed_attributes />
          <mxCell style="endArrow=classic;fontColor=#FEE599;exitX=0;exitY=0.75;exitDx=0;exitDy=0;startArrow=none;startFill=0;endFill=1;exitPerimeter=0;strokeWidth=2;spacingRight=20;verticalAlign=top;strokeColor=#000000;" parent="1" source="kVZn4hKlKfzOOjyC7Y9h-5" target="Zh3dSjUnpUvwRO7Crw0d-3" edge="1">
            <mxGeometry width="50" height="50" relative="1" as="geometry">
              <mxPoint x="1058" y="1227" as="sourcePoint" />
              <mxPoint x="1023" y="1375" as="targetPoint" />
            </mxGeometry>
          </mxCell>
        </object>
        <object label="" id="Zh3dSjUnpUvwRO7Crw0d-10">
          <ag_attributes />
          <ag_computed_attributes />
          <mxCell style="edgeStyle=none;rounded=0;orthogonalLoop=1;jettySize=auto;exitX=0.175;exitY=0.25;exitDx=0;exitDy=0;exitPerimeter=0;jumpStyle=arc;endArrow=classic;endFill=1;strokeWidth=2;spacingRight=20;verticalAlign=top;strokeColor=#000000;" parent="1" source="kVZn4hKlKfzOOjyC7Y9h-6" target="Zh3dSjUnpUvwRO7Crw0d-5" edge="1">
            <mxGeometry relative="1" as="geometry">
              <mxPoint x="647" y="1429" as="sourcePoint" />
              <mxPoint x="686" y="1456.5" as="targetPoint" />
            </mxGeometry>
          </mxCell>
        </object>
        <object label="" id="Zh3dSjUnpUvwRO7Crw0d-11">
          <ag_attributes />
          <ag_computed_attributes />
          <mxCell style="edgeStyle=none;rounded=0;orthogonalLoop=1;jettySize=auto;exitX=0.175;exitY=0.75;exitDx=0;exitDy=0;exitPerimeter=0;jumpStyle=arc;endArrow=classic;endFill=1;strokeWidth=2;spacingRight=20;verticalAlign=top;strokeColor=#000000;" parent="1" source="kVZn4hKlKfzOOjyC7Y9h-6" target="Zh3dSjUnpUvwRO7Crw0d-6" edge="1">
            <mxGeometry relative="1" as="geometry">
              <mxPoint x="679.75" y="1473" as="sourcePoint" />
              <mxPoint x="714.6392405063289" y="1522" as="targetPoint" />
            </mxGeometry>
          </mxCell>
        </object>
        <object label="" id="Zh3dSjUnpUvwRO7Crw0d-12">
          <ag_attributes />
          <ag_computed_attributes />
          <mxCell style="edgeStyle=none;rounded=0;orthogonalLoop=1;jettySize=auto;entryX=1;entryY=0.5;entryDx=0;entryDy=0;entryPerimeter=0;jumpStyle=arc;endArrow=classic;endFill=1;strokeWidth=2;spacingRight=20;verticalAlign=top;strokeColor=#000000;" parent="1" source="PANx_2H3_iy-v-Putqux-31" target="kVZn4hKlKfzOOjyC7Y9h-5" edge="1">
            <mxGeometry relative="1" as="geometry">
              <mxPoint x="982" y="1307" as="sourcePoint" />
              <mxPoint x="748" y="1451.5" as="targetPoint" />
            </mxGeometry>
          </mxCell>
        </object>
        <object label="Super User / Privilegierten Account übernehmen" Resources="" Knowledge="" Location="" id="Zh3dSjUnpUvwRO7Crw0d-17">
          <ag_attributes label="NaN" Resources="5" Knowledge="5" Location="0" _marking="Zh3dSjUnpUvwRO7Crw0d-33" />
          <ag_computed_attributes fillColor="#40ff00" fontColor="#000000" value="1" />
          <ag_computed_attributes_function_reference ag_computed_attributes_function_reference="dbg60ff69g9a" />
          <ag_aggregation_function_reference ag_aggregation_function_reference="6b1d22791hih8" />
          <mxCell style="verticalAlign=top;align=center;fillColor=#FFFFFF;gradientColor=none;labelBackgroundColor=none;rounded=0;whiteSpace=wrap;shape=attackgraphs.node;spacingRight=20;" parent="1" vertex="1">
            <mxGeometry x="864.5" y="560" width="180" height="60" as="geometry" />
          </mxCell>
        </object>
        <object label="" id="Zh3dSjUnpUvwRO7Crw0d-18">
          <ag_attributes />
          <ag_computed_attributes />
          <mxCell style="endArrow=classic;fontColor=#FEE599;startArrow=none;startFill=0;endFill=1;strokeWidth=2;strokeColor=#000000;" parent="1" source="uPvtzUqCq0j5UhJlTc7c-67" target="Zh3dSjUnpUvwRO7Crw0d-17" edge="1">
            <mxGeometry width="50" height="50" relative="1" as="geometry">
              <mxPoint x="1461.4736842105262" y="408" as="sourcePoint" />
              <mxPoint x="1515.157894736842" y="468" as="targetPoint" />
            </mxGeometry>
          </mxCell>
        </object>
        <object label="Spezielle Addressen für Smart Contracts ausschließen" Resources="" Knowledge="" Location="" id="Zh3dSjUnpUvwRO7Crw0d-19">
          <ag_attributes label="NaN" Resources="5" Knowledge="5" Location="0" _marking="Zh3dSjUnpUvwRO7Crw0d-17" />
          <ag_computed_attributes fillColor="#40ff00" fontColor="#000000" value="1" />
          <ag_computed_attributes_function_reference ag_computed_attributes_function_reference="dbg60ff69g9a" />
          <ag_aggregation_function_reference ag_aggregation_function_reference="6b1d22791hih8" />
          <mxCell style="verticalAlign=top;align=center;fillColor=#FFFFFF;gradientColor=none;labelBackgroundColor=none;rounded=0;whiteSpace=wrap;shape=attackgraphs.node;spacingRight=20;" parent="1" vertex="1">
            <mxGeometry x="475.5" y="360" width="194.5" height="60" as="geometry" />
          </mxCell>
        </object>
        <object label="2" id="Zh3dSjUnpUvwRO7Crw0d-21">
          <ag_attributes />
          <ag_computed_attributes />
          <mxCell style="endArrow=classic;fontColor=#000000;startArrow=none;startFill=0;endFill=1;strokeWidth=2;strokeColor=#000000;fontSize=15;" parent="1" source="uPvtzUqCq0j5UhJlTc7c-38" target="Zh3dSjUnpUvwRO7Crw0d-19" edge="1">
            <mxGeometry width="50" height="50" relative="1" as="geometry">
              <mxPoint x="786.9200000000001" y="247.9999999999999" as="sourcePoint" />
              <mxPoint x="846.0799999999999" y="350" as="targetPoint" />
              <Array as="points" />
            </mxGeometry>
          </mxCell>
        </object>
        <object label="" id="Zh3dSjUnpUvwRO7Crw0d-22">
          <ag_attributes />
          <ag_computed_attributes />
          <mxCell style="endArrow=classic;fontColor=#FEE599;startArrow=none;startFill=0;endFill=1;strokeWidth=2;strokeColor=#000000;" parent="1" source="Zh3dSjUnpUvwRO7Crw0d-19" target="Zh3dSjUnpUvwRO7Crw0d-17" edge="1">
            <mxGeometry width="50" height="50" relative="1" as="geometry">
              <mxPoint x="1100" y="330" as="sourcePoint" />
              <mxPoint x="1096.3999999999996" y="350" as="targetPoint" />
              <Array as="points" />
            </mxGeometry>
          </mxCell>
        </object>
        <object id="eCq6edl6h6hgmWOPJE0u-24">
          <ag_attributes />
          <ag_computed_attributes />
          <mxCell style="edgeStyle=none;rounded=0;orthogonalLoop=1;jettySize=auto;html=1;strokeWidth=2;startArrow=diamondThin;startFill=1;endArrow=none;endFill=0;strokeColor=#000000;" parent="1" source="Zh3dSjUnpUvwRO7Crw0d-33" target="eCq6edl6h6hgmWOPJE0u-25" edge="1">
            <mxGeometry relative="1" as="geometry">
              <mxPoint x="1063" y="865.6560463432297" as="targetPoint" />
            </mxGeometry>
          </mxCell>
        </object>
        <object label="Social Engineering durchführen" Resources="3" Knowledge="3" Location="0" id="Zh3dSjUnpUvwRO7Crw0d-33">
          <ag_attributes label="NaN" Resources="5" Knowledge="5" Location="0" />
          <ag_computed_attributes fillColor="#40ff00" fontColor="#000000" value="1" />
          <ag_computed_attributes_function_reference ag_computed_attributes_function_reference="dbg60ff69g9a" />
          <ag_aggregation_function_reference ag_aggregation_function_reference="73f575i0ghij5" />
          <mxCell style="verticalAlign=top;align=center;fillColor=#D7E3BF;gradientColor=none;labelBackgroundColor=none;rounded=0;whiteSpace=wrap;fontSize=12;shape=attackgraphs.node;spacingRight=20;" parent="1" vertex="1">
            <mxGeometry x="710" y="760" width="180" height="60" as="geometry" />
          </mxCell>
        </object>
        <object label="" id="Zh3dSjUnpUvwRO7Crw0d-34">
          <ag_attributes />
          <ag_computed_attributes />
          <mxCell style="endArrow=classic;fontColor=#FEE599;startArrow=none;startFill=0;endFill=1;strokeWidth=2;strokeColor=#000000;" parent="1" source="Zh3dSjUnpUvwRO7Crw0d-17" target="Zh3dSjUnpUvwRO7Crw0d-33" edge="1">
            <mxGeometry width="50" height="50" relative="1" as="geometry">
              <mxPoint x="1278.6315789473683" y="618" as="sourcePoint" />
              <mxPoint x="1269.3684210526321" y="684" as="targetPoint" />
            </mxGeometry>
          </mxCell>
        </object>
        <object label="" id="Zh3dSjUnpUvwRO7Crw0d-35">
          <ag_attributes />
          <ag_computed_attributes />
          <mxCell style="endArrow=classic;fontColor=#FEE599;startArrow=none;startFill=0;endFill=1;strokeWidth=2;strokeColor=#000000;" parent="1" source="Zh3dSjUnpUvwRO7Crw0d-17" target="uPvtzUqCq0j5UhJlTc7c-13" edge="1">
            <mxGeometry width="50" height="50" relative="1" as="geometry">
              <mxPoint x="1204.9655172413795" y="732" as="sourcePoint" />
              <mxPoint x="1032.0344827586205" y="800" as="targetPoint" />
            </mxGeometry>
          </mxCell>
        </object>
        <object label="" id="1pDNzRnQ3DDHTgN9yjp4-1">
          <ag_attributes />
          <ag_computed_attributes />
          <mxCell style="edgeStyle=none;rounded=0;orthogonalLoop=1;jettySize=auto;jumpStyle=arc;endArrow=classic;endFill=1;strokeWidth=2;entryX=1;entryY=0.5;entryDx=0;entryDy=0;exitX=0.5;exitY=1;exitDx=0;exitDy=0;entryPerimeter=0;spacingRight=20;verticalAlign=top;strokeColor=#000000;" parent="1" source="PANx_2H3_iy-v-Putqux-29" target="kVZn4hKlKfzOOjyC7Y9h-2" edge="1">
            <mxGeometry relative="1" as="geometry">
              <mxPoint x="562" y="1230" as="sourcePoint" />
              <mxPoint x="501.9967487684728" y="1267.5" as="targetPoint" />
            </mxGeometry>
          </mxCell>
        </object>
        <object id="kVZn4hKlKfzOOjyC7Y9h-1">
          <ag_attributes label="NaN" Resources="5" Knowledge="5" Location="0" _marking="uPvtzUqCq0j5UhJlTc7c-65;PANx_2H3_iy-v-Putqux-1" />
          <ag_computed_attributes />
          <ag_aggregation_function_reference ag_aggregation_function_reference="gf0d4f199018" />
          <mxCell style="shape=or;whiteSpace=wrap;html=1;rotation=-90;" parent="1" vertex="1">
            <mxGeometry x="-83" y="900" width="45" height="60" as="geometry" />
          </mxCell>
        </object>
        <object id="kVZn4hKlKfzOOjyC7Y9h-2">
          <ag_attributes label="NaN" Resources="5" Knowledge="5" Location="1" _marking="PANx_2H3_iy-v-Putqux-9;kVZn4hKlKfzOOjyC7Y9h-3" />
          <ag_computed_attributes />
          <ag_aggregation_function_reference ag_aggregation_function_reference="gf0d4f199018" />
          <mxCell style="shape=or;whiteSpace=wrap;html=1;rotation=-90;spacingRight=20;verticalAlign=top;" parent="1" vertex="1">
            <mxGeometry x="-506.5" y="1250" width="35" height="40" as="geometry" />
          </mxCell>
        </object>
        <object id="kVZn4hKlKfzOOjyC7Y9h-3">
          <ag_attributes label="NaN" Resources="4" Knowledge="4" Location="0" _marking="PANx_2H3_iy-v-Putqux-20" />
          <ag_computed_attributes />
          <ag_aggregation_function_reference ag_aggregation_function_reference="6b1d22791hih8" />
          <mxCell style="shape=xor;whiteSpace=wrap;html=1;rotation=-90;spacingRight=20;verticalAlign=top;" parent="1" vertex="1">
            <mxGeometry x="-630" y="1298" width="25" height="37.5" as="geometry" />
          </mxCell>
        </object>
        <object label="" id="kVZn4hKlKfzOOjyC7Y9h-4">
          <ag_attributes />
          <ag_computed_attributes />
          <mxCell style="edgeStyle=none;rounded=0;orthogonalLoop=1;jettySize=auto;entryX=1;entryY=0.5;entryDx=0;entryDy=0;entryPerimeter=0;jumpStyle=arc;exitX=0;exitY=0.25;exitDx=0;exitDy=0;exitPerimeter=0;endArrow=classic;endFill=1;strokeWidth=2;spacingRight=20;verticalAlign=top;strokeColor=#000000;" parent="1" source="kVZn4hKlKfzOOjyC7Y9h-5" target="kVZn4hKlKfzOOjyC7Y9h-6" edge="1">
            <mxGeometry relative="1" as="geometry">
              <mxPoint x="870" y="1373.25" as="sourcePoint" />
              <mxPoint x="686" y="1439.25" as="targetPoint" />
            </mxGeometry>
          </mxCell>
        </object>
        <object id="kVZn4hKlKfzOOjyC7Y9h-5">
          <ag_attributes label="NaN" Resources="5" Knowledge="5" Location="1" _marking="Zh3dSjUnpUvwRO7Crw0d-3;kVZn4hKlKfzOOjyC7Y9h-6" />
          <ag_computed_attributes />
          <ag_aggregation_function_reference ag_aggregation_function_reference="gf0d4f199018" />
          <mxCell style="shape=or;whiteSpace=wrap;html=1;rotation=-90;spacingRight=20;verticalAlign=top;" parent="1" vertex="1">
            <mxGeometry x="-90" y="1328" width="35" height="40" as="geometry" />
          </mxCell>
        </object>
        <object id="kVZn4hKlKfzOOjyC7Y9h-6">
          <ag_attributes label="NaN" Resources="4" Knowledge="4" Location="0" _marking="Zh3dSjUnpUvwRO7Crw0d-6" />
          <ag_computed_attributes />
          <ag_aggregation_function_reference ag_aggregation_function_reference="6b1d22791hih8" />
          <mxCell style="shape=xor;whiteSpace=wrap;html=1;rotation=-90;spacingRight=20;verticalAlign=top;" parent="1" vertex="1">
            <mxGeometry x="-185" y="1392.5" width="25" height="37.5" as="geometry" />
          </mxCell>
        </object>
        <object label="" id="kVZn4hKlKfzOOjyC7Y9h-7">
          <ag_attributes />
          <ag_computed_attributes />
          <mxCell style="edgeStyle=none;rounded=0;orthogonalLoop=1;jettySize=auto;entryX=1;entryY=0.5;entryDx=0;entryDy=0;entryPerimeter=0;jumpStyle=arc;exitX=0;exitY=0.25;exitDx=0;exitDy=0;exitPerimeter=0;endArrow=classic;endFill=1;strokeWidth=2;strokeColor=#000000;" parent="1" source="kVZn4hKlKfzOOjyC7Y9h-8" target="kVZn4hKlKfzOOjyC7Y9h-9" edge="1">
            <mxGeometry relative="1" as="geometry">
              <mxPoint x="1108" y="1117" as="sourcePoint" />
              <mxPoint x="924" y="1183" as="targetPoint" />
            </mxGeometry>
          </mxCell>
        </object>
        <object id="kVZn4hKlKfzOOjyC7Y9h-8">
          <ag_attributes label="NaN" Resources="5" Knowledge="5" Location="1" _marking="PANx_2H3_iy-v-Putqux-32;kVZn4hKlKfzOOjyC7Y9h-9" />
          <ag_computed_attributes />
          <ag_aggregation_function_reference ag_aggregation_function_reference="gf0d4f199018" />
          <mxCell style="shape=or;whiteSpace=wrap;html=1;rotation=-90;" parent="1" vertex="1">
            <mxGeometry x="1092" y="1120" width="35" height="40" as="geometry" />
          </mxCell>
        </object>
        <object id="kVZn4hKlKfzOOjyC7Y9h-9">
          <ag_attributes label="NaN" Resources="3" Knowledge="3" Location="0" _marking="PANx_2H3_iy-v-Putqux-35" />
          <ag_computed_attributes />
          <ag_aggregation_function_reference ag_aggregation_function_reference="6b1d22791hih8" />
          <mxCell style="shape=xor;whiteSpace=wrap;html=1;rotation=-90;" parent="1" vertex="1">
            <mxGeometry x="1009" y="1170" width="25" height="37.5" as="geometry" />
          </mxCell>
        </object>
        <object label="" id="kVZn4hKlKfzOOjyC7Y9h-10">
          <ag_attributes />
          <ag_computed_attributes />
          <mxCell style="edgeStyle=none;rounded=0;orthogonalLoop=1;jettySize=auto;entryX=1;entryY=0.5;entryDx=0;entryDy=0;entryPerimeter=0;jumpStyle=arc;exitX=0;exitY=0.25;exitDx=0;exitDy=0;exitPerimeter=0;endArrow=classic;endFill=1;strokeWidth=2;strokeColor=#000000;" parent="1" source="kVZn4hKlKfzOOjyC7Y9h-11" target="kVZn4hKlKfzOOjyC7Y9h-12" edge="1">
            <mxGeometry relative="1" as="geometry">
              <mxPoint x="1386" y="938.5" as="sourcePoint" />
              <mxPoint x="1202" y="1004.5" as="targetPoint" />
            </mxGeometry>
          </mxCell>
        </object>
        <object id="kVZn4hKlKfzOOjyC7Y9h-11">
          <ag_attributes label="NaN" Resources="5" Knowledge="5" Location="1" _marking="PANx_2H3_iy-v-Putqux-46;kVZn4hKlKfzOOjyC7Y9h-12" />
          <ag_computed_attributes />
          <ag_aggregation_function_reference ag_aggregation_function_reference="gf0d4f199018" />
          <mxCell style="shape=or;whiteSpace=wrap;html=1;rotation=-90;" parent="1" vertex="1">
            <mxGeometry x="1487" y="868" width="37" height="40" as="geometry" />
          </mxCell>
        </object>
        <object id="kVZn4hKlKfzOOjyC7Y9h-12">
          <ag_attributes label="NaN" Resources="3" Knowledge="3" Location="0" _marking="PANx_2H3_iy-v-Putqux-49" />
          <ag_computed_attributes />
          <ag_aggregation_function_reference ag_aggregation_function_reference="6b1d22791hih8" />
          <mxCell style="shape=xor;whiteSpace=wrap;html=1;rotation=-90;" parent="1" vertex="1">
            <mxGeometry x="1454" y="930" width="25" height="37.5" as="geometry" />
          </mxCell>
        </object>
        <object label="" id="eCq6edl6h6hgmWOPJE0u-2">
          <ag_attributes />
          <ag_computed_attributes />
          <mxCell style="endArrow=none;dashed=1;html=1;rounded=0;strokeWidth=1;strokeColor=#000000;" parent="1" edge="1">
            <mxGeometry width="50" height="50" relative="1" as="geometry">
              <mxPoint x="-410" y="1690" as="sourcePoint" />
              <mxPoint x="3050" y="1680" as="targetPoint" />
            </mxGeometry>
          </mxCell>
        </object>
        <object label="Privacy Enhancing Technologies" Resources="2" Knowledge="2" Location="0" id="eCq6edl6h6hgmWOPJE0u-5">
          <ag_attributes />
          <ag_computed_attributes />
          <mxCell style="shape=attackgraphs.node;fillColor=#DAE8FC;verticalAlign=top;" parent="1" vertex="1">
            <mxGeometry x="2550" y="1720" width="208" height="75" as="geometry" />
          </mxCell>
        </object>
        <object label="Verschlüsselung" Resources="5" Knowledge="3" Location="0" id="eCq6edl6h6hgmWOPJE0u-7">
          <ag_attributes />
          <ag_computed_attributes />
          <mxCell style="shape=attackgraphs.node;fillColor=#DAE8FC;verticalAlign=top;" parent="1" vertex="1">
            <mxGeometry x="2255" y="930" width="150" height="75" as="geometry" />
          </mxCell>
        </object>
        <object label="Zugangsbeschränkung&#xa;Sicherer Speicher" Resources="1" Knowledge="2" Location="0" id="eCq6edl6h6hgmWOPJE0u-8">
          <ag_attributes />
          <ag_computed_attributes />
          <mxCell style="shape=attackgraphs.node;fillColor=#DAE8FC;verticalAlign=top;" parent="1" vertex="1">
            <mxGeometry x="1885" y="650" width="170" height="75" as="geometry" />
          </mxCell>
        </object>
        <object label="Digitale Signatur" Resources="2" Knowledge="2" Location="1" id="eCq6edl6h6hgmWOPJE0u-9">
          <ag_attributes />
          <ag_computed_attributes />
          <mxCell style="shape=attackgraphs.node;fillColor=#DAE8FC;verticalAlign=top;" parent="1" vertex="1">
            <mxGeometry x="1427" y="1317.5" width="150" height="75" as="geometry" />
          </mxCell>
        </object>
        <object label="Redundanz&#xa;Plausibilitätsprüfung" Resources="3" Knowledge="2" Location="0" id="eCq6edl6h6hgmWOPJE0u-18">
          <ag_attributes />
          <ag_computed_attributes />
          <mxCell style="shape=attackgraphs.node;fillColor=#DAE8FC;verticalAlign=top;" parent="1" vertex="1">
            <mxGeometry x="1808" y="1720" width="214" height="85" as="geometry" />
          </mxCell>
        </object>
        <object label="Schutz vor Schadcode&#xa;Firewall&#xa;Schwachstellenscans&#xa;Penetrationstests&#xa;Mitarbeiterschulung" Resources="2" Knowledge="3" Location="0" id="eCq6edl6h6hgmWOPJE0u-21">
          <ag_attributes />
          <ag_computed_attributes />
          <mxCell style="shape=attackgraphs.node;fillColor=#DAE8FC;align=left;verticalAlign=top;" parent="1" vertex="1">
            <mxGeometry x="1470" y="1510" width="212" height="110" as="geometry" />
          </mxCell>
        </object>
        <object label="Schutz vor Schadcode&#xa;Firewall&#xa;Penetrationstests&#xa;Mitarbeiterschulung&#xa;Security-Monitoring" Resources="2" Knowledge="3" Location="0" id="eCq6edl6h6hgmWOPJE0u-25">
          <ag_attributes />
          <ag_computed_attributes />
          <mxCell style="shape=attackgraphs.node;fillColor=#DAE8FC;align=left;verticalAlign=top;" parent="1" vertex="1">
            <mxGeometry x="720.5" y="840" width="159" height="105" as="geometry" />
          </mxCell>
        </object>
        <object label="Digitale Signatur" Resources="2" Knowledge="2" Location="1" id="eCq6edl6h6hgmWOPJE0u-26">
          <ag_attributes />
          <ag_computed_attributes />
          <mxCell style="shape=attackgraphs.node;fillColor=#DAE8FC;verticalAlign=top;" parent="1" vertex="1">
            <mxGeometry x="270" y="1530" width="150" height="75" as="geometry" />
          </mxCell>
        </object>
        <object label="Mitarbeiterschulung&#xa;Validierung und Tests (inkl. regelmäßige Wiederholung)&#xa;Vier-Augen-Prinzip" Resources="3" Knowledge="4" Location="0" id="eCq6edl6h6hgmWOPJE0u-29">
          <ag_attributes />
          <ag_computed_attributes />
          <mxCell style="shape=attackgraphs.node;fillColor=#DAE8FC;align=left;verticalAlign=top;spacingLeft=2;" parent="1" vertex="1">
            <mxGeometry x="480" y="1530" width="330" height="80" as="geometry" />
          </mxCell>
        </object>
        <object label="Überwachung zur Nachverfolgung" Impact="2" id="eCq6edl6h6hgmWOPJE0u-32">
          <ag_attributes />
          <ag_computed_attributes />
          <mxCell style="shape=attackgraphs.node;fillColor=#DAE8FC;fontSize=12;align=left;verticalAlign=top;spacingLeft=2;whiteSpace=wrap;" parent="1" vertex="1">
            <mxGeometry x="1507.5" y="260" width="120" height="77" as="geometry" />
          </mxCell>
        </object>
        <object id="eCq6edl6h6hgmWOPJE0u-33">
          <ag_attributes />
          <ag_computed_attributes />
          <mxCell style="edgeStyle=none;rounded=0;orthogonalLoop=1;jettySize=auto;html=1;strokeWidth=2;startArrow=diamondThin;startFill=1;endArrow=none;endFill=0;strokeColor=#000000;fontSize=15;" parent="1" source="eCq6edl6h6hgmWOPJE0u-34" target="eCq6edl6h6hgmWOPJE0u-32" edge="1">
            <mxGeometry relative="1" as="geometry" />
          </mxCell>
        </object>
        <object id="eCq6edl6h6hgmWOPJE0u-35">
          <ag_attributes />
          <ag_computed_attributes />
          <mxCell style="edgeStyle=none;rounded=1;orthogonalLoop=1;jettySize=auto;html=1;strokeWidth=2;startArrow=none;startFill=0;endArrow=classic;endFill=1;fontColor=#FEE599;strokeColor=#000000;fontSize=15;" parent="1" source="eCq6edl6h6hgmWOPJE0u-34" target="uPvtzUqCq0j5UhJlTc7c-40" edge="1">
            <mxGeometry relative="1" as="geometry" />
          </mxCell>
        </object>
        <object label="" id="eCq6edl6h6hgmWOPJE0u-34">
          <ag_attributes _af="3" _marking="uPvtzUqCq0j5UhJlTc7c-40" _impact="2" />
          <ag_computed_attributes />
          <ag_aggregation_function_reference ag_aggregation_function_reference="397423adceb0f" />
          <mxCell style="shape=attackgraphs.node;allowArrows=0;fontSize=15;" parent="1" vertex="1">
            <mxGeometry x="1407" y="310" width="21" height="20" as="geometry" />
          </mxCell>
        </object>
        <object label="Gehärtetes Endgerät&#xa;Beschränkte Berechtigungen&#xa;Schutz vor Schadcode" Resources="2" Knowledge="2" Location="1" id="_DiuqgOfEGZcNAKlj9fZ-1">
          <ag_attributes />
          <ag_computed_attributes />
          <mxCell style="shape=attackgraphs.node;fillColor=#DAE8FC;verticalAlign=top;" parent="1" vertex="1">
            <mxGeometry x="2537" y="930" width="170" height="75" as="geometry" />
          </mxCell>
        </object>
        <object label="Datensparsamkeit" Resources="1" Knowledge="1" Location="0" id="_DiuqgOfEGZcNAKlj9fZ-2">
          <ag_attributes />
          <ag_computed_attributes />
          <mxCell style="shape=attackgraphs.node;fillColor=#DAE8FC;verticalAlign=top;" parent="1" vertex="1">
            <mxGeometry x="2786" y="1720" width="150" height="75" as="geometry" />
          </mxCell>
        </object>
        <object id="_DiuqgOfEGZcNAKlj9fZ-3">
          <ag_attributes />
          <ag_computed_attributes />
          <mxCell style="rounded=0;orthogonalLoop=1;jettySize=auto;html=1;strokeWidth=2;startArrow=none;startFill=0;endArrow=none;endFill=0;strokeColor=#000000;verticalAlign=top;" parent="1" source="eCq6edl6h6hgmWOPJE0u-21" target="_DiuqgOfEGZcNAKlj9fZ-4" edge="1">
            <mxGeometry relative="1" as="geometry">
              <mxPoint x="1647" y="1620" as="sourcePoint" />
            </mxGeometry>
          </mxCell>
        </object>
        <object label="Reaktionsfähigkeit auf Sicherheitslücken" id="_DiuqgOfEGZcNAKlj9fZ-4">
          <ag_attributes />
          <ag_computed_attributes />
          <mxCell style="shape=attackgraphs.node;fillColor=#DAE8FC;verticalAlign=top;" parent="1" vertex="1">
            <mxGeometry x="1461" y="1720" width="230" height="75" as="geometry" />
          </mxCell>
        </object>
        <object id="H5YiigOTkMO85wwIDj1j-1">
          <ag_attributes />
          <ag_computed_attributes />
          <mxCell style="edgeStyle=none;rounded=0;orthogonalLoop=1;jettySize=auto;html=1;strokeWidth=2;startArrow=diamondThin;startFill=1;endArrow=none;endFill=0;strokeColor=#000000;" parent="1" source="Zh3dSjUnpUvwRO7Crw0d-3" target="eCq6edl6h6hgmWOPJE0u-26" edge="1">
            <mxGeometry relative="1" as="geometry">
              <mxPoint x="220" y="1080" as="sourcePoint" />
            </mxGeometry>
          </mxCell>
        </object>
        <object id="H5YiigOTkMO85wwIDj1j-2">
          <ag_attributes />
          <ag_computed_attributes />
          <mxCell style="edgeStyle=none;rounded=0;orthogonalLoop=1;jettySize=auto;html=1;strokeWidth=2;startArrow=diamondThin;startFill=1;endArrow=none;endFill=0;strokeColor=#000000;" parent="1" source="PANx_2H3_iy-v-Putqux-9" target="eCq6edl6h6hgmWOPJE0u-26" edge="1">
            <mxGeometry relative="1" as="geometry">
              <mxPoint x="220" y="1080" as="sourcePoint" />
            </mxGeometry>
          </mxCell>
        </object>
        <object label="Erlangung Zugriff Rechenzentrum vor Ort" Resources="3" Knowledge="3" Location="1" id="Zh3dSjUnpUvwRO7Crw0d-5">
          <ag_attributes label="NaN" Resources="4" Knowledge="4" Location="1" />
          <ag_computed_attributes fillColor="#40ff00" fontColor="#000000" value="1" />
          <ag_computed_attributes_function_reference ag_computed_attributes_function_reference="dbg60ff69g9a" />
          <ag_aggregation_function_reference ag_aggregation_function_reference="73f575i0ghij5" />
          <mxCell style="whiteSpace=wrap;rounded=0;fillColor=#D7E3BF;strokeColor=#000000;shape=attackgraphs.node;spacingRight=20;verticalAlign=top;" parent="1" vertex="1">
            <mxGeometry x="-332.5" y="1440" width="150" height="60" as="geometry" />
          </mxCell>
        </object>
        <object label="Zugriffsschutz" Resources="1" Knowledge="1" Location="0" id="H5YiigOTkMO85wwIDj1j-3">
          <ag_attributes />
          <ag_computed_attributes />
          <mxCell style="shape=attackgraphs.node;fillColor=#DAE8FC;verticalAlign=top;" parent="1" vertex="1">
            <mxGeometry x="-490" y="1590" width="150" height="75" as="geometry" />
          </mxCell>
        </object>
        <object id="H5YiigOTkMO85wwIDj1j-4">
          <ag_attributes />
          <ag_computed_attributes />
          <mxCell style="edgeStyle=none;rounded=0;orthogonalLoop=1;jettySize=auto;html=1;strokeWidth=2;startArrow=diamondThin;startFill=1;endArrow=none;endFill=0;strokeColor=#000000;" parent="1" source="PANx_2H3_iy-v-Putqux-20" target="H5YiigOTkMO85wwIDj1j-3" edge="1">
            <mxGeometry relative="1" as="geometry">
              <mxPoint x="220" y="1080" as="sourcePoint" />
            </mxGeometry>
          </mxCell>
        </object>
        <object id="H5YiigOTkMO85wwIDj1j-5">
          <ag_attributes />
          <ag_computed_attributes />
          <mxCell style="edgeStyle=none;rounded=0;orthogonalLoop=1;jettySize=auto;html=1;strokeWidth=2;startArrow=diamondThin;startFill=1;endArrow=none;endFill=0;strokeColor=#000000;" parent="1" source="Zh3dSjUnpUvwRO7Crw0d-6" target="H5YiigOTkMO85wwIDj1j-3" edge="1">
            <mxGeometry relative="1" as="geometry">
              <mxPoint x="220" y="1080" as="sourcePoint" />
            </mxGeometry>
          </mxCell>
        </object>
        <object label="Zugangsbeschränkung" Resources="1" Knowledge="1" Location="0" id="H5YiigOTkMO85wwIDj1j-6">
          <ag_attributes />
          <ag_computed_attributes />
          <mxCell style="shape=attackgraphs.node;fillColor=#DAE8FC;verticalAlign=top;" parent="1" vertex="1">
            <mxGeometry x="-690" y="1590" width="150" height="75" as="geometry" />
          </mxCell>
        </object>
        <object id="H5YiigOTkMO85wwIDj1j-7">
          <ag_attributes />
          <ag_computed_attributes />
          <mxCell style="edgeStyle=none;rounded=0;orthogonalLoop=1;jettySize=auto;html=1;strokeWidth=2;startArrow=diamondThin;startFill=1;endArrow=none;endFill=0;strokeColor=#000000;" parent="1" source="PANx_2H3_iy-v-Putqux-19" target="H5YiigOTkMO85wwIDj1j-6" edge="1">
            <mxGeometry relative="1" as="geometry">
              <mxPoint x="220" y="1080" as="sourcePoint" />
            </mxGeometry>
          </mxCell>
        </object>
        <object id="H5YiigOTkMO85wwIDj1j-8">
          <ag_attributes />
          <ag_computed_attributes />
          <mxCell style="edgeStyle=none;rounded=0;orthogonalLoop=1;jettySize=auto;html=1;strokeWidth=2;startArrow=diamondThin;startFill=1;endArrow=none;endFill=0;strokeColor=#000000;" parent="1" source="Zh3dSjUnpUvwRO7Crw0d-5" target="H5YiigOTkMO85wwIDj1j-6" edge="1">
            <mxGeometry relative="1" as="geometry">
              <mxPoint x="220" y="1080" as="sourcePoint" />
            </mxGeometry>
          </mxCell>
        </object>
        <object label="Einspeisen verfälschter Daten" Resources="3" Knowledge="3" Location="0" id="Zh3dSjUnpUvwRO7Crw0d-3">
          <ag_attributes label="NaN" Resources="5" Knowledge="5" Location="1" />
          <ag_computed_attributes fillColor="#40ff00" fontColor="#000000" value="1" />
          <ag_computed_attributes_function_reference ag_computed_attributes_function_reference="dbg60ff69g9a" />
          <ag_aggregation_function_reference ag_aggregation_function_reference="73f575i0ghij5" />
          <mxCell style="whiteSpace=wrap;rounded=0;fillColor=#D7E3BF;strokeColor=#000000;shape=attackgraphs.node;spacingRight=20;verticalAlign=top;" parent="1" vertex="1">
            <mxGeometry x="12" y="1440" width="150" height="60" as="geometry" />
          </mxCell>
        </object>
        <object label="Multi-Faktor-Authentifizierung&#xa;Biometrische Authentifikation (Stimmanalyse: Tonhöhe, Sprachgeschwindigkeit, Muster)" Resources="1" Knowledge="1" Location="0" id="H5YiigOTkMO85wwIDj1j-9">
          <ag_attributes />
          <ag_computed_attributes />
          <mxCell style="shape=attackgraphs.node;fillColor=#DAE8FC;verticalAlign=top;align=left;whiteSpace=wrap;" parent="1" vertex="1">
            <mxGeometry x="-239" y="1730" width="299" height="90" as="geometry" />
          </mxCell>
        </object>
        <object id="H5YiigOTkMO85wwIDj1j-10">
          <ag_attributes />
          <ag_computed_attributes />
          <mxCell style="edgeStyle=none;rounded=0;orthogonalLoop=1;jettySize=auto;html=1;strokeWidth=2;startArrow=diamondThin;startFill=1;endArrow=none;endFill=0;strokeColor=#000000;" parent="1" source="uPvtzUqCq0j5UhJlTc7c-65" target="H5YiigOTkMO85wwIDj1j-9" edge="1">
            <mxGeometry relative="1" as="geometry">
              <mxPoint x="220" y="1080" as="sourcePoint" />
            </mxGeometry>
          </mxCell>
        </object>
        <object id="H5YiigOTkMO85wwIDj1j-11">
          <ag_attributes />
          <ag_computed_attributes />
          <mxCell style="edgeStyle=none;rounded=0;orthogonalLoop=1;jettySize=auto;html=1;strokeWidth=2;startArrow=diamondThin;startFill=1;endArrow=none;endFill=0;strokeColor=#000000;" parent="1" source="PANx_2H3_iy-v-Putqux-1" target="H5YiigOTkMO85wwIDj1j-9" edge="1">
            <mxGeometry relative="1" as="geometry">
              <mxPoint x="220" y="1080" as="sourcePoint" />
            </mxGeometry>
          </mxCell>
        </object>
        <object label="Erlangung Zugriff Rechenzentrum remote" Resources="3" Knowledge="3" Location="0" id="Zh3dSjUnpUvwRO7Crw0d-6">
          <ag_attributes label="NaN" Resources="4" Knowledge="4" Location="0" />
          <ag_computed_attributes fillColor="#d4ff00" fontColor="#000000" value="2" />
          <ag_computed_attributes_function_reference ag_computed_attributes_function_reference="dbg60ff69g9a" />
          <ag_aggregation_function_reference ag_aggregation_function_reference="73f575i0ghij5" />
          <mxCell style="whiteSpace=wrap;rounded=0;fillColor=#D7E3BF;strokeColor=#000000;shape=attackgraphs.node;spacingRight=20;verticalAlign=top;" parent="1" vertex="1">
            <mxGeometry x="-160" y="1440" width="150" height="60" as="geometry" />
          </mxCell>
        </object>
        <object label="Unbewusste Manipulation" Resources="" Knowledge="" Location="" id="PANx_2H3_iy-v-Putqux-13">
          <ag_attributes label="NaN" Resources="5" Knowledge="5" Location="1" _marking="PANx_2H3_iy-v-Putqux-14" />
          <ag_computed_attributes fillColor="#40ff00" fontColor="#000000" value="1" />
          <ag_computed_attributes_function_reference ag_computed_attributes_function_reference="dbg60ff69g9a" />
          <ag_aggregation_function_reference ag_aggregation_function_reference="6b1d22791hih8" />
          <mxCell style="whiteSpace=wrap;rounded=0;shape=attackgraphs.node;verticalAlign=top;spacingRight=20;" parent="1" vertex="1">
            <mxGeometry x="505.5" y="1000" width="150" height="60" as="geometry" />
          </mxCell>
        </object>
        <object id="H5YiigOTkMO85wwIDj1j-12">
          <ag_attributes />
          <ag_computed_attributes />
          <mxCell style="edgeStyle=none;rounded=0;orthogonalLoop=1;jettySize=auto;html=1;strokeWidth=2;startArrow=diamondThin;startFill=1;endArrow=none;endFill=0;strokeColor=#000000;" parent="1" source="PANx_2H3_iy-v-Putqux-46" target="eCq6edl6h6hgmWOPJE0u-9" edge="1">
            <mxGeometry relative="1" as="geometry" />
          </mxCell>
        </object>
        <object id="H5YiigOTkMO85wwIDj1j-13">
          <ag_attributes />
          <ag_computed_attributes />
          <mxCell style="edgeStyle=none;rounded=0;orthogonalLoop=1;jettySize=auto;html=1;strokeWidth=2;startArrow=diamondThin;startFill=1;endArrow=none;endFill=0;strokeColor=#000000;" parent="1" source="PANx_2H3_iy-v-Putqux-32" target="eCq6edl6h6hgmWOPJE0u-9" edge="1">
            <mxGeometry relative="1" as="geometry" />
          </mxCell>
        </object>
        <object label="Malware einschleusen" Resources="3" Knowledge="3" Location="0" id="uPvtzUqCq0j5UhJlTc7c-13">
          <ag_attributes label="NaN" Resources="5" Knowledge="5" Location="0" />
          <ag_computed_attributes fillColor="#40ff00" fontColor="#000000" value="1" />
          <ag_computed_attributes_function_reference ag_computed_attributes_function_reference="dbg60ff69g9a" />
          <ag_aggregation_function_reference ag_aggregation_function_reference="73f575i0ghij5" />
          <mxCell style="verticalAlign=top;align=center;gradientColor=none;labelBackgroundColor=none;rounded=0;whiteSpace=wrap;fillColor=#D7E3BF;shape=attackgraphs.node;spacingRight=20;" parent="1" vertex="1">
            <mxGeometry x="1750" y="760" width="144" height="60" as="geometry" />
          </mxCell>
        </object>
        <object label="Persönliches Endgerät&#xa;abhören" Resources="2" Knowledge="2" Location="0" id="uPvtzUqCq0j5UhJlTc7c-8">
          <ag_attributes label="NaN" Resources="4" Knowledge="4" Location="1" />
          <ag_computed_attributes fillColor="#40ff00" fontColor="#000000" value="1" />
          <ag_computed_attributes_function_reference ag_computed_attributes_function_reference="dbg60ff69g9a" />
          <ag_aggregation_function_reference ag_aggregation_function_reference="73f575i0ghij5" />
          <mxCell style="verticalAlign=top;align=center;fillColor=#fee599;gradientColor=none;labelBackgroundColor=none;rounded=0;whiteSpace=wrap;shape=attackgraphs.node;spacingRight=20;" parent="1" vertex="1">
            <mxGeometry x="2550" y="760" width="144" height="60" as="geometry" />
          </mxCell>
        </object>
        <object label="&lt;span style=&quot;color: rgb(0, 0, 0); font-family: Helvetica; font-size: 12px; font-style: normal; font-variant-ligatures: normal; font-variant-caps: normal; font-weight: 400; letter-spacing: normal; orphans: 2; text-align: left; text-indent: 0px; text-transform: none; widows: 2; word-spacing: 0px; -webkit-text-stroke-width: 0px; background-color: rgb(248, 249, 250); text-decoration-thickness: initial; text-decoration-style: initial; text-decoration-color: initial; float: none; display: inline !important;&quot;&gt;&lt;span&gt;&amp;nbsp;MFA durch&amp;nbsp;&lt;/span&gt;extra Freigabe der Buchung&lt;/span&gt;" id="Lk03vesRnJ9wN9lAQ0JK-2">
          <ag_attributes />
          <ag_computed_attributes />
          <mxCell style="shape=callout;whiteSpace=wrap;html=1;perimeter=calloutPerimeter;position2=0.33;" parent="1" vertex="1">
            <mxGeometry x="42" y="1670" width="120" height="80" as="geometry" />
          </mxCell>
        </object>
      </root>
    </mxGraphModel>
  </diagram>
</mxfile>
